STARTFONT 2.1
COMMENT
COMMENT Converted from OpenType font "courier_10_pitch.ttf" by "otf2bdf 3.0".
COMMENT
FONT -FreeType-Courier10 BT-Medium-R-Normal--19-140-100-100-P-90-ISO10646-1
SIZE 14 100 100
FONTBOUNDINGBOX 13 23 0 -6
STARTPROPERTIES 19
FOUNDRY "FreeType"
FAMILY_NAME "Courier10 BT"
WEIGHT_NAME "Medium"
SLANT "R"
SETWIDTH_NAME "Normal"
ADD_STYLE_NAME ""
PIXEL_SIZE 19
POINT_SIZE 140
RESOLUTION_X 100
RESOLUTION_Y 100
SPACING "P"
AVERAGE_WIDTH 90
CHARSET_REGISTRY "ISO10646"
CHARSET_ENCODING "1"
FONT_ASCENT 16
FONT_DESCENT 5
COPYRIGHT "Copyright 1990-1993 Bitstream Inc.  All rights reserved."
_OTF_FONTFILE "courier_10_pitch.ttf"
_OTF_PSNAME "Courier10PitchBT-Roman"
ENDPROPERTIES
CHARS 191
STARTCHAR 0020
ENCODING 32
SWIDTH 617 0
DWIDTH 12 0
BBX 0 0 0 0
BITMAP
ENDCHAR
STARTCHAR 0021
ENCODING 33
SWIDTH 617 0
DWIDTH 12 0
BBX 4 11 4 0
BITMAP
40
40
40
40
40
40
40
00
F0
F0
F0
ENDCHAR
STARTCHAR 0022
ENCODING 34
SWIDTH 617 0
DWIDTH 12 0
BBX 3 5 4 6
BITMAP
A0
A0
A0
A0
A0
ENDCHAR
STARTCHAR 0023
ENCODING 35
SWIDTH 617 0
DWIDTH 12 0
BBX 9 14 2 -1
BITMAP
1200
1200
1200
1200
1200
FF80
3600
3600
FF80
2400
2400
2400
2400
2400
ENDCHAR
STARTCHAR 0024
ENCODING 36
SWIDTH 617 0
DWIDTH 12 0
BBX 8 16 1 -2
BITMAP
10
10
7F
C1
81
80
E0
7C
0E
01
81
C3
FC
10
10
10
ENDCHAR
STARTCHAR 0025
ENCODING 37
SWIDTH 617 0
DWIDTH 12 0
BBX 8 12 2 0
BITMAP
78
84
84
84
7B
0E
70
9E
21
21
21
1E
ENDCHAR
STARTCHAR 0026
ENCODING 38
SWIDTH 617 0
DWIDTH 12 0
BBX 8 11 2 0
BITMAP
3C
4C
40
40
60
73
9A
8E
8E
CE
7B
ENDCHAR
STARTCHAR 0027
ENCODING 39
SWIDTH 617 0
DWIDTH 12 0
BBX 1 5 5 6
BITMAP
80
80
80
80
80
ENDCHAR
STARTCHAR 0028
ENCODING 40
SWIDTH 617 0
DWIDTH 12 0
BBX 4 15 4 -4
BITMAP
10
20
60
40
C0
80
80
80
80
80
C0
40
60
20
10
ENDCHAR
STARTCHAR 0029
ENCODING 41
SWIDTH 617 0
DWIDTH 12 0
BBX 4 15 4 -4
BITMAP
80
40
60
20
30
10
10
10
10
10
30
20
60
40
80
ENDCHAR
STARTCHAR 002A
ENCODING 42
SWIDTH 617 0
DWIDTH 12 0
BBX 8 7 2 4
BITMAP
18
18
DB
7E
3C
24
66
ENDCHAR
STARTCHAR 002B
ENCODING 43
SWIDTH 617 0
DWIDTH 12 0
BBX 9 9 1 1
BITMAP
0800
0800
0800
0800
FF80
0800
0800
0800
0800
ENDCHAR
STARTCHAR 002C
ENCODING 44
SWIDTH 617 0
DWIDTH 12 0
BBX 4 5 3 -2
BITMAP
70
60
60
C0
C0
ENDCHAR
STARTCHAR 002D
ENCODING 45
SWIDTH 617 0
DWIDTH 12 0
BBX 9 2 1 4
BITMAP
FF80
FF80
ENDCHAR
STARTCHAR 002E
ENCODING 46
SWIDTH 617 0
DWIDTH 12 0
BBX 4 3 4 0
BITMAP
F0
F0
F0
ENDCHAR
STARTCHAR 002F
ENCODING 47
SWIDTH 617 0
DWIDTH 12 0
BBX 8 15 2 -1
BITMAP
01
03
02
06
04
0C
08
18
10
30
20
60
40
C0
80
ENDCHAR
STARTCHAR 0030
ENCODING 48
SWIDTH 617 0
DWIDTH 12 0
BBX 8 12 2 0
BITMAP
3C
42
42
81
81
81
81
81
81
42
42
3C
ENDCHAR
STARTCHAR 0031
ENCODING 49
SWIDTH 617 0
DWIDTH 12 0
BBX 7 12 2 0
BITMAP
30
F0
10
10
10
10
10
10
10
10
10
FE
ENDCHAR
STARTCHAR 0032
ENCODING 50
SWIDTH 617 0
DWIDTH 12 0
BBX 8 12 2 0
BITMAP
3C
E2
C1
01
01
02
06
0C
18
70
E1
FF
ENDCHAR
STARTCHAR 0033
ENCODING 51
SWIDTH 617 0
DWIDTH 12 0
BBX 8 12 2 0
BITMAP
3E
63
01
01
03
1E
03
01
01
01
C2
7C
ENDCHAR
STARTCHAR 0034
ENCODING 52
SWIDTH 617 0
DWIDTH 12 0
BBX 8 12 2 0
BITMAP
0C
0C
14
14
24
24
44
C4
FF
04
04
1E
ENDCHAR
STARTCHAR 0035
ENCODING 53
SWIDTH 617 0
DWIDTH 12 0
BBX 7 12 2 0
BITMAP
FC
80
80
80
F8
C4
02
02
02
02
84
F8
ENDCHAR
STARTCHAR 0036
ENCODING 54
SWIDTH 617 0
DWIDTH 12 0
BBX 8 12 2 0
BITMAP
0F
30
40
80
BC
C2
C1
81
81
41
62
3C
ENDCHAR
STARTCHAR 0037
ENCODING 55
SWIDTH 617 0
DWIDTH 12 0
BBX 8 12 2 0
BITMAP
FF
83
02
02
06
04
0C
0C
08
18
18
10
ENDCHAR
STARTCHAR 0038
ENCODING 56
SWIDTH 617 0
DWIDTH 12 0
BBX 8 12 2 0
BITMAP
3C
C3
81
81
C3
7E
C3
81
81
81
42
3C
ENDCHAR
STARTCHAR 0039
ENCODING 57
SWIDTH 617 0
DWIDTH 12 0
BBX 8 12 2 0
BITMAP
3C
46
82
81
81
83
43
3D
02
02
04
F8
ENDCHAR
STARTCHAR 003A
ENCODING 58
SWIDTH 617 0
DWIDTH 12 0
BBX 4 9 4 0
BITMAP
F0
F0
F0
00
00
00
F0
F0
F0
ENDCHAR
STARTCHAR 003B
ENCODING 59
SWIDTH 617 0
DWIDTH 12 0
BBX 4 11 3 -2
BITMAP
F0
F0
F0
00
00
00
70
60
E0
C0
80
ENDCHAR
STARTCHAR 003C
ENCODING 60
SWIDTH 617 0
DWIDTH 12 0
BBX 10 9 1 1
BITMAP
00C0
0380
1E00
7800
C000
7800
0E00
0380
00C0
ENDCHAR
STARTCHAR 003D
ENCODING 61
SWIDTH 617 0
DWIDTH 12 0
BBX 10 4 1 4
BITMAP
FFC0
0000
0000
FFC0
ENDCHAR
STARTCHAR 003E
ENCODING 62
SWIDTH 617 0
DWIDTH 12 0
BBX 10 9 1 1
BITMAP
C000
7000
1C00
0780
00C0
0780
1E00
7000
C000
ENDCHAR
STARTCHAR 003F
ENCODING 63
SWIDTH 617 0
DWIDTH 12 0
BBX 7 11 2 0
BITMAP
FC
C6
82
02
0C
30
20
00
78
78
78
ENDCHAR
STARTCHAR 0040
ENCODING 64
SWIDTH 617 0
DWIDTH 12 0
BBX 7 14 2 -1
BITMAP
3C
66
42
82
9E
B2
A2
A2
A2
9E
80
40
60
3E
ENDCHAR
STARTCHAR 0041
ENCODING 65
SWIDTH 617 0
DWIDTH 12 0
BBX 12 11 0 0
BITMAP
3E00
0F00
0B00
0900
1980
1080
3FC0
2040
2040
6060
F9F0
ENDCHAR
STARTCHAR 0042
ENCODING 66
SWIDTH 617 0
DWIDTH 12 0
BBX 10 11 1 0
BITMAP
FE00
4180
4080
4080
4180
7F80
40C0
4040
4040
40C0
FF00
ENDCHAR
STARTCHAR 0043
ENCODING 67
SWIDTH 617 0
DWIDTH 12 0
BBX 9 11 1 0
BITMAP
1F80
2180
4080
8080
8000
8000
8000
8000
4000
2180
1F00
ENDCHAR
STARTCHAR 0044
ENCODING 68
SWIDTH 617 0
DWIDTH 12 0
BBX 10 11 1 0
BITMAP
FE00
4180
4080
4040
4040
4040
4040
4040
4080
4100
FE00
ENDCHAR
STARTCHAR 0045
ENCODING 69
SWIDTH 617 0
DWIDTH 12 0
BBX 9 11 1 0
BITMAP
FF80
4080
4080
4080
4400
7C00
4400
4080
4080
4080
FF80
ENDCHAR
STARTCHAR 0046
ENCODING 70
SWIDTH 617 0
DWIDTH 12 0
BBX 9 11 2 0
BITMAP
FF80
4080
4080
4080
4400
7C00
4400
4000
4000
4000
F800
ENDCHAR
STARTCHAR 0047
ENCODING 71
SWIDTH 617 0
DWIDTH 12 0
BBX 11 11 1 0
BITMAP
1FC0
20C0
4040
8000
8000
8000
83E0
8040
4040
3040
1F80
ENDCHAR
STARTCHAR 0048
ENCODING 72
SWIDTH 617 0
DWIDTH 12 0
BBX 10 11 1 0
BITMAP
E1C0
4080
4080
4080
4080
7F80
4080
4080
4080
4080
E1C0
ENDCHAR
STARTCHAR 0049
ENCODING 73
SWIDTH 617 0
DWIDTH 12 0
BBX 7 11 2 0
BITMAP
FE
10
10
10
10
10
10
10
10
10
FE
ENDCHAR
STARTCHAR 004A
ENCODING 74
SWIDTH 617 0
DWIDTH 12 0
BBX 10 11 1 0
BITMAP
1FC0
0100
0100
0100
0100
0100
8100
8100
8100
C200
7C00
ENDCHAR
STARTCHAR 004B
ENCODING 75
SWIDTH 617 0
DWIDTH 12 0
BBX 10 11 1 0
BITMAP
EFC0
4700
4C00
4800
5000
7800
4C00
4600
4300
4300
E1C0
ENDCHAR
STARTCHAR 004C
ENCODING 76
SWIDTH 617 0
DWIDTH 12 0
BBX 10 11 1 0
BITMAP
FC00
2000
2000
2000
2000
2000
2040
2040
2040
2040
FFC0
ENDCHAR
STARTCHAR 004D
ENCODING 77
SWIDTH 617 0
DWIDTH 12 0
BBX 11 11 0 0
BITMAP
E0E0
60C0
71C0
5140
5940
5B40
4E40
4E40
4040
4040
E0E0
ENDCHAR
STARTCHAR 004E
ENCODING 78
SWIDTH 617 0
DWIDTH 12 0
BBX 10 11 1 0
BITMAP
E3C0
6080
7080
5880
4880
4C80
4480
4280
4380
4180
F080
ENDCHAR
STARTCHAR 004F
ENCODING 79
SWIDTH 617 0
DWIDTH 12 0
BBX 10 11 1 0
BITMAP
1E00
6180
4080
8040
8040
8040
8040
8040
4080
6180
1E00
ENDCHAR
STARTCHAR 0050
ENCODING 80
SWIDTH 617 0
DWIDTH 12 0
BBX 9 11 2 0
BITMAP
FC00
4300
4080
4080
4080
4300
7C00
4000
4000
4000
E000
ENDCHAR
STARTCHAR 0051
ENCODING 81
SWIDTH 617 0
DWIDTH 12 0
BBX 10 14 1 -3
BITMAP
1E00
2100
4080
8040
8040
8040
8040
8040
4080
6180
3E00
1000
2E40
7380
ENDCHAR
STARTCHAR 0052
ENCODING 82
SWIDTH 617 0
DWIDTH 12 0
BBX 10 11 1 0
BITMAP
FE00
4100
4080
4080
4180
7E00
4700
4300
4180
4180
E0C0
ENDCHAR
STARTCHAR 0053
ENCODING 83
SWIDTH 617 0
DWIDTH 12 0
BBX 9 11 2 0
BITMAP
3F80
4180
8080
8000
E000
3F00
0180
8080
8080
C100
FE00
ENDCHAR
STARTCHAR 0054
ENCODING 84
SWIDTH 617 0
DWIDTH 12 0
BBX 9 11 1 0
BITMAP
FF80
8880
8880
8880
8880
0800
0800
0800
0800
0800
7F00
ENDCHAR
STARTCHAR 0055
ENCODING 85
SWIDTH 617 0
DWIDTH 12 0
BBX 10 11 1 0
BITMAP
E1C0
4080
4080
4080
4080
4080
4080
4080
4080
2100
1E00
ENDCHAR
STARTCHAR 0056
ENCODING 86
SWIDTH 617 0
DWIDTH 12 0
BBX 11 11 0 0
BITMAP
F1E0
60C0
2080
2080
3180
1100
1900
1B00
0A00
0E00
0400
ENDCHAR
STARTCHAR 0057
ENCODING 87
SWIDTH 617 0
DWIDTH 12 0
BBX 12 11 0 0
BITMAP
F9F0
4020
6620
6660
6660
2F40
2940
2940
29C0
30C0
30C0
ENDCHAR
STARTCHAR 0058
ENCODING 88
SWIDTH 617 0
DWIDTH 12 0
BBX 10 11 1 0
BITMAP
F3C0
6180
3300
1E00
1C00
0C00
1E00
1200
3300
6180
F3C0
ENDCHAR
STARTCHAR 0059
ENCODING 89
SWIDTH 617 0
DWIDTH 12 0
BBX 9 11 1 0
BITMAP
F780
6100
2200
3200
1400
1C00
0800
0800
0800
0800
7F00
ENDCHAR
STARTCHAR 005A
ENCODING 90
SWIDTH 617 0
DWIDTH 12 0
BBX 7 11 2 0
BITMAP
FE
86
84
88
18
10
22
62
42
82
FE
ENDCHAR
STARTCHAR 005B
ENCODING 91
SWIDTH 617 0
DWIDTH 12 0
BBX 4 15 4 -4
BITMAP
F0
80
80
80
80
80
80
80
80
80
80
80
80
80
F0
ENDCHAR
STARTCHAR 005C
ENCODING 92
SWIDTH 617 0
DWIDTH 12 0
BBX 8 15 2 -1
BITMAP
80
C0
40
60
20
30
10
18
08
0C
04
06
02
03
01
ENDCHAR
STARTCHAR 005D
ENCODING 93
SWIDTH 617 0
DWIDTH 12 0
BBX 4 15 4 -4
BITMAP
F0
10
10
10
10
10
10
10
10
10
10
10
10
10
F0
ENDCHAR
STARTCHAR 005E
ENCODING 94
SWIDTH 617 0
DWIDTH 12 0
BBX 7 4 2 9
BITMAP
10
38
44
82
ENDCHAR
STARTCHAR 005F
ENCODING 95
SWIDTH 617 0
DWIDTH 12 0
BBX 13 2 0 -6
BITMAP
FFF8
FFF8
ENDCHAR
STARTCHAR 0060
ENCODING 96
SWIDTH 617 0
DWIDTH 12 0
BBX 5 3 2 10
BITMAP
C0
60
18
ENDCHAR
STARTCHAR 0061
ENCODING 97
SWIDTH 617 0
DWIDTH 12 0
BBX 9 9 1 0
BITMAP
7C00
6200
0100
0100
3F00
C100
8100
8300
7D80
ENDCHAR
STARTCHAR 0062
ENCODING 98
SWIDTH 617 0
DWIDTH 12 0
BBX 10 12 1 0
BITMAP
C000
4000
4000
5F00
7180
60C0
4040
4040
4040
60C0
7180
DF00
ENDCHAR
STARTCHAR 0063
ENCODING 99
SWIDTH 617 0
DWIDTH 12 0
BBX 9 9 1 0
BITMAP
1F80
6180
C180
8080
8000
8000
C080
6380
3E00
ENDCHAR
STARTCHAR 0064
ENCODING 100
SWIDTH 617 0
DWIDTH 12 0
BBX 10 12 1 0
BITMAP
0380
0080
0080
3E80
6380
C180
8080
8080
8080
C180
6380
3EC0
ENDCHAR
STARTCHAR 0065
ENCODING 101
SWIDTH 617 0
DWIDTH 12 0
BBX 10 9 1 0
BITMAP
1F00
6180
C0C0
8040
FFC0
8000
8000
41C0
3F00
ENDCHAR
STARTCHAR 0066
ENCODING 102
SWIDTH 617 0
DWIDTH 12 0
BBX 9 12 2 0
BITMAP
1F80
2000
2000
FE00
2000
2000
2000
2000
2000
2000
2000
FE00
ENDCHAR
STARTCHAR 0067
ENCODING 103
SWIDTH 617 0
DWIDTH 12 0
BBX 9 13 1 -4
BITMAP
3D80
4300
8100
8100
8100
8100
8100
4300
3D00
0100
0100
0300
3C00
ENDCHAR
STARTCHAR 0068
ENCODING 104
SWIDTH 617 0
DWIDTH 12 0
BBX 9 12 1 0
BITMAP
C000
4000
4000
5E00
6300
4100
4100
4100
4100
4100
4100
E380
ENDCHAR
STARTCHAR 0069
ENCODING 105
SWIDTH 617 0
DWIDTH 12 0
BBX 9 13 1 0
BITMAP
0800
0800
0000
0000
7800
0800
0800
0800
0800
0800
0800
0800
FF80
ENDCHAR
STARTCHAR 006A
ENCODING 106
SWIDTH 617 0
DWIDTH 12 0
BBX 6 17 2 -4
BITMAP
08
08
00
00
FC
04
04
04
04
04
04
04
04
04
04
08
F0
ENDCHAR
STARTCHAR 006B
ENCODING 107
SWIDTH 617 0
DWIDTH 12 0
BBX 10 12 2 0
BITMAP
C000
4000
4000
4F80
4600
5800
7000
7800
4C00
4600
4300
C7C0
ENDCHAR
STARTCHAR 006C
ENCODING 108
SWIDTH 617 0
DWIDTH 12 0
BBX 8 12 2 0
BITMAP
F0
10
10
10
10
10
10
10
10
10
10
FF
ENDCHAR
STARTCHAR 006D
ENCODING 109
SWIDTH 617 0
DWIDTH 12 0
BBX 11 9 0 0
BITMAP
FB80
4640
4440
4440
4440
4440
4440
4440
E660
ENDCHAR
STARTCHAR 006E
ENCODING 110
SWIDTH 617 0
DWIDTH 12 0
BBX 9 9 1 0
BITMAP
DE00
6300
4100
4100
4100
4100
4100
4100
E380
ENDCHAR
STARTCHAR 006F
ENCODING 111
SWIDTH 617 0
DWIDTH 12 0
BBX 10 9 1 0
BITMAP
1E00
6180
C0C0
8040
8040
8040
C0C0
6180
1E00
ENDCHAR
STARTCHAR 0070
ENCODING 112
SWIDTH 617 0
DWIDTH 12 0
BBX 10 13 1 -4
BITMAP
DF00
7180
60C0
4040
4040
4040
60C0
7180
5F00
4000
4000
4000
F800
ENDCHAR
STARTCHAR 0071
ENCODING 113
SWIDTH 617 0
DWIDTH 12 0
BBX 10 13 1 -4
BITMAP
3EC0
6380
C180
8080
8080
8080
C180
6380
3E80
0080
0080
0080
07C0
ENDCHAR
STARTCHAR 0072
ENCODING 114
SWIDTH 617 0
DWIDTH 12 0
BBX 9 9 2 0
BITMAP
E780
3880
3000
2000
2000
2000
2000
2000
FE00
ENDCHAR
STARTCHAR 0073
ENCODING 115
SWIDTH 617 0
DWIDTH 12 0
BBX 8 9 2 0
BITMAP
7E
86
82
C0
7E
03
81
C3
FE
ENDCHAR
STARTCHAR 0074
ENCODING 116
SWIDTH 617 0
DWIDTH 12 0
BBX 9 11 1 0
BITMAP
2000
2000
FF00
2000
2000
2000
2000
2000
2000
2180
1F00
ENDCHAR
STARTCHAR 0075
ENCODING 117
SWIDTH 617 0
DWIDTH 12 0
BBX 9 9 1 0
BITMAP
C700
4100
4100
4100
4100
4100
4100
6300
3D80
ENDCHAR
STARTCHAR 0076
ENCODING 118
SWIDTH 617 0
DWIDTH 12 0
BBX 11 9 0 0
BITMAP
F3E0
6080
2180
3100
3300
1200
1A00
0E00
0C00
ENDCHAR
STARTCHAR 0077
ENCODING 119
SWIDTH 617 0
DWIDTH 12 0
BBX 12 9 0 0
BITMAP
F0F0
4020
6660
2640
2640
37C0
19C0
1980
1980
ENDCHAR
STARTCHAR 0078
ENCODING 120
SWIDTH 617 0
DWIDTH 12 0
BBX 10 9 1 0
BITMAP
F3C0
3100
1200
1E00
0C00
1E00
3300
2180
F3C0
ENDCHAR
STARTCHAR 0079
ENCODING 121
SWIDTH 617 0
DWIDTH 12 0
BBX 11 13 1 -4
BITMAP
F9E0
60C0
3080
3180
1900
1B00
0E00
0E00
0400
0C00
0800
1800
FC00
ENDCHAR
STARTCHAR 007A
ENCODING 122
SWIDTH 617 0
DWIDTH 12 0
BBX 8 9 2 0
BITMAP
FF
83
86
0C
18
30
61
C1
FF
ENDCHAR
STARTCHAR 007B
ENCODING 123
SWIDTH 617 0
DWIDTH 12 0
BBX 6 15 3 -4
BITMAP
0C
10
10
10
10
10
30
E0
30
10
10
10
10
10
0C
ENDCHAR
STARTCHAR 007C
ENCODING 124
SWIDTH 617 0
DWIDTH 12 0
BBX 2 20 5 -5
BITMAP
C0
C0
C0
C0
C0
C0
C0
C0
C0
C0
C0
C0
C0
C0
C0
C0
C0
C0
C0
C0
ENDCHAR
STARTCHAR 007D
ENCODING 125
SWIDTH 617 0
DWIDTH 12 0
BBX 6 15 3 -4
BITMAP
C0
20
20
20
20
20
30
1C
30
20
20
20
20
20
C0
ENDCHAR
STARTCHAR 007E
ENCODING 126
SWIDTH 617 0
DWIDTH 12 0
BBX 9 2 1 5
BITMAP
7880
8F00
ENDCHAR
STARTCHAR 00A0
ENCODING 160
SWIDTH 617 0
DWIDTH 12 0
BBX 0 0 0 0
BITMAP
ENDCHAR
STARTCHAR 00A1
ENCODING 161
SWIDTH 617 0
DWIDTH 12 0
BBX 4 11 4 0
BITMAP
F0
F0
F0
00
40
40
40
40
40
40
40
ENDCHAR
STARTCHAR 00A2
ENCODING 162
SWIDTH 617 0
DWIDTH 12 0
BBX 8 14 2 -1
BITMAP
08
08
08
3F
43
81
80
80
80
43
3E
10
10
10
ENDCHAR
STARTCHAR 00A3
ENCODING 163
SWIDTH 617 0
DWIDTH 12 0
BBX 7 12 3 0
BITMAP
7C
C4
84
80
80
80
FC
40
40
40
40
FE
ENDCHAR
STARTCHAR 00A4
ENCODING 164
SWIDTH 617 0
DWIDTH 12 0
BBX 9 9 1 4
BITMAP
8080
5D00
2200
4100
4100
4100
2200
5D00
8080
ENDCHAR
STARTCHAR 00A5
ENCODING 165
SWIDTH 617 0
DWIDTH 12 0
BBX 9 11 1 0
BITMAP
F380
4100
6300
E380
1400
1400
FF80
0800
0800
0800
7F00
ENDCHAR
STARTCHAR 00A6
ENCODING 166
SWIDTH 617 0
DWIDTH 12 0
BBX 1 17 5 -3
BITMAP
80
80
80
80
80
80
80
00
00
00
80
80
80
80
80
80
80
ENDCHAR
STARTCHAR 00A7
ENCODING 167
SWIDTH 617 0
DWIDTH 12 0
BBX 9 13 1 -2
BITMAP
3F00
4100
4100
F000
BC00
8E00
6300
3880
1E80
0780
4100
4100
7E00
ENDCHAR
STARTCHAR 00A8
ENCODING 168
SWIDTH 617 0
DWIDTH 12 0
BBX 7 2 3 10
BITMAP
C6
C6
ENDCHAR
STARTCHAR 00A9
ENCODING 169
SWIDTH 617 0
DWIDTH 12 0
BBX 11 11 0 1
BITMAP
1F00
2080
4F40
9120
A120
A020
A020
9120
4E40
2080
1F00
ENDCHAR
STARTCHAR 00AA
ENCODING 170
SWIDTH 617 0
DWIDTH 12 0
BBX 8 9 2 2
BITMAP
78
04
7C
C4
84
8C
77
01
FF
ENDCHAR
STARTCHAR 00AB
ENCODING 171
SWIDTH 617 0
DWIDTH 12 0
BBX 7 7 3 1
BITMAP
22
66
CC
CC
CC
66
22
ENDCHAR
STARTCHAR 00AC
ENCODING 172
SWIDTH 617 0
DWIDTH 12 0
BBX 9 5 1 4
BITMAP
FF80
0080
0080
0080
0080
ENDCHAR
STARTCHAR 00AD
ENCODING 173
SWIDTH 617 0
DWIDTH 12 0
BBX 9 2 1 4
BITMAP
FF80
FF80
ENDCHAR
STARTCHAR 00AE
ENCODING 174
SWIDTH 617 0
DWIDTH 12 0
BBX 11 11 0 1
BITMAP
1F00
2080
5E40
8920
8920
8E20
8B20
9DA0
4040
2080
1F00
ENDCHAR
STARTCHAR 00AF
ENCODING 175
SWIDTH 617 0
DWIDTH 12 0
BBX 7 1 3 11
BITMAP
FE
ENDCHAR
STARTCHAR 00B0
ENCODING 176
SWIDTH 617 0
DWIDTH 12 0
BBX 6 6 3 7
BITMAP
78
CC
84
84
CC
78
ENDCHAR
STARTCHAR 00B1
ENCODING 177
SWIDTH 617 0
DWIDTH 12 0
BBX 7 11 2 1
BITMAP
10
10
10
10
FE
10
10
10
10
00
FE
ENDCHAR
STARTCHAR 00B2
ENCODING 178
SWIDTH 617 0
DWIDTH 12 0
BBX 6 7 3 5
BITMAP
78
C4
04
08
30
64
FC
ENDCHAR
STARTCHAR 00B3
ENCODING 179
SWIDTH 617 0
DWIDTH 12 0
BBX 6 7 3 5
BITMAP
78
04
18
04
04
84
78
ENDCHAR
STARTCHAR 00B4
ENCODING 180
SWIDTH 617 0
DWIDTH 12 0
BBX 5 3 4 10
BITMAP
18
30
C0
ENDCHAR
STARTCHAR 00B5
ENCODING 181
SWIDTH 617 0
DWIDTH 12 0
BBX 10 13 1 -4
BITMAP
70C0
30C0
20C0
2080
2080
6080
6180
6380
7DC0
4000
C000
C000
8000
ENDCHAR
STARTCHAR 00B6
ENCODING 182
SWIDTH 617 0
DWIDTH 12 0
BBX 10 13 1 -1
BITMAP
3FC0
7D00
FD00
FD00
FD00
7D00
3D00
0500
0500
0500
0500
0500
3DC0
ENDCHAR
STARTCHAR 00B7
ENCODING 183
SWIDTH 617 0
DWIDTH 12 0
BBX 4 4 4 4
BITMAP
60
F0
F0
60
ENDCHAR
STARTCHAR 00B8
ENCODING 184
SWIDTH 617 0
DWIDTH 12 0
BBX 5 4 3 -4
BITMAP
20
38
18
F8
ENDCHAR
STARTCHAR 00B9
ENCODING 185
SWIDTH 617 0
DWIDTH 12 0
BBX 5 7 3 5
BITMAP
E0
20
20
20
20
20
F8
ENDCHAR
STARTCHAR 00BA
ENCODING 186
SWIDTH 617 0
DWIDTH 12 0
BBX 9 9 2 2
BITMAP
3C00
4200
8100
8100
8100
4200
3C00
0000
7F80
ENDCHAR
STARTCHAR 00BB
ENCODING 187
SWIDTH 617 0
DWIDTH 12 0
BBX 7 7 3 1
BITMAP
88
CC
66
66
66
CC
88
ENDCHAR
STARTCHAR 00BC
ENCODING 188
SWIDTH 617 0
DWIDTH 12 0
BBX 9 14 1 -2
BITMAP
E000
2000
2000
2000
2000
2080
FF00
3B00
C700
0D00
1900
1F80
0100
0100
ENDCHAR
STARTCHAR 00BD
ENCODING 189
SWIDTH 617 0
DWIDTH 12 0
BBX 9 14 1 -2
BITMAP
E000
2000
2000
2000
2000
2080
FF00
3F00
C880
0080
0180
0300
0600
0F80
ENDCHAR
STARTCHAR 00BE
ENCODING 190
SWIDTH 617 0
DWIDTH 12 0
BBX 9 14 1 -2
BITMAP
7000
8800
0800
3000
0800
0880
F700
3B00
E300
0500
0D00
1900
1F80
0100
ENDCHAR
STARTCHAR 00BF
ENCODING 191
SWIDTH 617 0
DWIDTH 12 0
BBX 7 11 2 0
BITMAP
3C
3C
3C
00
08
18
60
80
80
C6
7E
ENDCHAR
STARTCHAR 00C0
ENCODING 192
SWIDTH 617 0
DWIDTH 12 0
BBX 12 16 0 0
BITMAP
3000
1800
0600
0000
0000
3E00
0F00
0B00
0900
1980
1080
3FC0
2040
2040
6060
F9F0
ENDCHAR
STARTCHAR 00C1
ENCODING 193
SWIDTH 617 0
DWIDTH 12 0
BBX 12 16 0 0
BITMAP
0180
0300
0C00
0000
0000
3E00
0F00
0B00
0900
1980
1080
3FC0
2040
2040
6060
F9F0
ENDCHAR
STARTCHAR 00C2
ENCODING 194
SWIDTH 617 0
DWIDTH 12 0
BBX 12 16 0 0
BITMAP
0200
0D80
1040
0000
0000
3E00
0F00
0B00
0900
1980
1080
3FC0
2040
2040
6060
F9F0
ENDCHAR
STARTCHAR 00C3
ENCODING 195
SWIDTH 617 0
DWIDTH 12 0
BBX 12 15 0 0
BITMAP
1C80
2700
0000
0000
3E00
0F00
0B00
0900
1980
1080
3FC0
2040
2040
6060
F9F0
ENDCHAR
STARTCHAR 00C4
ENCODING 196
SWIDTH 617 0
DWIDTH 12 0
BBX 12 15 0 0
BITMAP
18C0
18C0
0000
0000
3E00
0F00
0B00
0900
1980
1080
3FC0
2040
2040
6060
F9F0
ENDCHAR
STARTCHAR 00C5
ENCODING 197
SWIDTH 617 0
DWIDTH 12 0
BBX 12 17 0 0
BITMAP
0E00
1100
1100
1100
0E00
0000
3E00
0F00
0B00
1900
1180
1080
3FC0
2040
2040
6060
F9F0
ENDCHAR
STARTCHAR 00C6
ENCODING 198
SWIDTH 617 0
DWIDTH 12 0
BBX 11 11 0 0
BITMAP
3FE0
0C20
1420
1420
1400
2780
3C00
2420
2420
4420
EFE0
ENDCHAR
STARTCHAR 00C7
ENCODING 199
SWIDTH 617 0
DWIDTH 12 0
BBX 9 15 1 -4
BITMAP
1F80
2180
4080
8080
8000
8000
8000
8000
4000
2180
1F00
0800
0E00
0600
3E00
ENDCHAR
STARTCHAR 00C8
ENCODING 200
SWIDTH 617 0
DWIDTH 12 0
BBX 9 16 1 0
BITMAP
6000
3000
0C00
0000
0000
FF80
4080
4080
4080
4400
7C00
4400
4080
4080
4080
FF80
ENDCHAR
STARTCHAR 00C9
ENCODING 201
SWIDTH 617 0
DWIDTH 12 0
BBX 9 16 1 0
BITMAP
0300
0600
1800
0000
0000
FF80
4080
4080
4080
4400
7C00
4400
4080
4080
4080
FF80
ENDCHAR
STARTCHAR 00CA
ENCODING 202
SWIDTH 617 0
DWIDTH 12 0
BBX 9 16 1 0
BITMAP
0400
1B00
2080
0000
0000
FF80
4080
4080
4080
4400
7C00
4400
4080
4080
4080
FF80
ENDCHAR
STARTCHAR 00CB
ENCODING 203
SWIDTH 617 0
DWIDTH 12 0
BBX 9 15 1 0
BITMAP
3180
3180
0000
0000
FF80
4080
4080
4080
4400
7C00
4400
4080
4080
4080
FF80
ENDCHAR
STARTCHAR 00CC
ENCODING 204
SWIDTH 617 0
DWIDTH 12 0
BBX 7 16 2 0
BITMAP
C0
60
18
00
00
FE
10
10
10
10
10
10
10
10
10
FE
ENDCHAR
STARTCHAR 00CD
ENCODING 205
SWIDTH 617 0
DWIDTH 12 0
BBX 7 16 2 0
BITMAP
06
0C
30
00
00
FE
10
10
10
10
10
10
10
10
10
FE
ENDCHAR
STARTCHAR 00CE
ENCODING 206
SWIDTH 617 0
DWIDTH 12 0
BBX 8 16 2 0
BITMAP
08
36
41
00
00
FE
10
10
10
10
10
10
10
10
10
FE
ENDCHAR
STARTCHAR 00CF
ENCODING 207
SWIDTH 617 0
DWIDTH 12 0
BBX 8 15 2 0
BITMAP
63
63
00
00
FE
10
10
10
10
10
10
10
10
10
FE
ENDCHAR
STARTCHAR 00D0
ENCODING 208
SWIDTH 617 0
DWIDTH 12 0
BBX 11 11 0 0
BITMAP
7F00
20C0
2040
2020
2020
FE20
2020
2020
2040
2080
7F00
ENDCHAR
STARTCHAR 00D1
ENCODING 209
SWIDTH 617 0
DWIDTH 12 0
BBX 10 15 1 0
BITMAP
3900
4E00
0000
0000
E3C0
6080
7080
5880
4880
4C80
4480
4280
4380
4180
F080
ENDCHAR
STARTCHAR 00D2
ENCODING 210
SWIDTH 617 0
DWIDTH 12 0
BBX 10 16 1 0
BITMAP
6000
3000
0C00
0000
0000
1E00
6180
4080
8040
8040
8040
8040
8040
4080
6180
1E00
ENDCHAR
STARTCHAR 00D3
ENCODING 211
SWIDTH 617 0
DWIDTH 12 0
BBX 10 16 1 0
BITMAP
0300
0600
1800
0000
0000
1E00
6180
4080
8040
8040
8040
8040
8040
4080
6180
1E00
ENDCHAR
STARTCHAR 00D4
ENCODING 212
SWIDTH 617 0
DWIDTH 12 0
BBX 10 16 1 0
BITMAP
0400
1B00
2080
0000
0000
1E00
6180
4080
8040
8040
8040
8040
8040
4080
6180
1E00
ENDCHAR
STARTCHAR 00D5
ENCODING 213
SWIDTH 617 0
DWIDTH 12 0
BBX 10 15 1 0
BITMAP
3900
4E00
0000
0000
1E00
6180
4080
8040
8040
8040
8040
8040
4080
6180
1E00
ENDCHAR
STARTCHAR 00D6
ENCODING 214
SWIDTH 617 0
DWIDTH 12 0
BBX 10 15 1 0
BITMAP
3180
3180
0000
0000
1E00
6180
4080
8040
8040
8040
8040
8040
4080
6180
1E00
ENDCHAR
STARTCHAR 00D7
ENCODING 215
SWIDTH 617 0
DWIDTH 12 0
BBX 8 8 2 2
BITMAP
C3
E7
7E
3C
3C
7E
E7
C3
ENDCHAR
STARTCHAR 00D8
ENCODING 216
SWIDTH 617 0
DWIDTH 12 0
BBX 10 13 1 -1
BITMAP
0080
1F80
2180
43C0
8240
8640
8C40
9840
9040
F080
6100
7E00
8000
ENDCHAR
STARTCHAR 00D9
ENCODING 217
SWIDTH 617 0
DWIDTH 12 0
BBX 10 16 1 0
BITMAP
6000
3000
0C00
0000
0000
E1C0
4080
4080
4080
4080
4080
4080
4080
4080
2100
1E00
ENDCHAR
STARTCHAR 00DA
ENCODING 218
SWIDTH 617 0
DWIDTH 12 0
BBX 10 16 1 0
BITMAP
0300
0600
1800
0000
0000
E1C0
4080
4080
4080
4080
4080
4080
4080
4080
2100
1E00
ENDCHAR
STARTCHAR 00DB
ENCODING 219
SWIDTH 617 0
DWIDTH 12 0
BBX 10 16 1 0
BITMAP
0400
1B00
2080
0000
0000
E1C0
4080
4080
4080
4080
4080
4080
4080
4080
2100
1E00
ENDCHAR
STARTCHAR 00DC
ENCODING 220
SWIDTH 617 0
DWIDTH 12 0
BBX 10 15 1 0
BITMAP
3180
3180
0000
0000
E1C0
4080
4080
4080
4080
4080
4080
4080
4080
2100
1E00
ENDCHAR
STARTCHAR 00DD
ENCODING 221
SWIDTH 617 0
DWIDTH 12 0
BBX 9 16 1 0
BITMAP
0300
0600
1800
0000
0000
F780
6100
2200
3200
1400
1C00
0800
0800
0800
0800
7F00
ENDCHAR
STARTCHAR 00DE
ENCODING 222
SWIDTH 617 0
DWIDTH 12 0
BBX 9 11 1 0
BITMAP
FC00
2000
2000
3E00
2180
2080
2080
2180
3E00
2000
FC00
ENDCHAR
STARTCHAR 00DF
ENCODING 223
SWIDTH 617 0
DWIDTH 12 0
BBX 10 12 0 0
BITMAP
1F00
3180
2080
2080
2180
2700
2080
2040
2040
2040
20C0
E780
ENDCHAR
STARTCHAR 00E0
ENCODING 224
SWIDTH 617 0
DWIDTH 12 0
BBX 9 13 1 0
BITMAP
6000
3000
0C00
0000
7C00
6200
0100
0100
3F00
C100
8100
8300
7D80
ENDCHAR
STARTCHAR 00E1
ENCODING 225
SWIDTH 617 0
DWIDTH 12 0
BBX 9 13 1 0
BITMAP
0300
0600
1800
0000
7C00
6200
0100
0100
3F00
C100
8100
8300
7D80
ENDCHAR
STARTCHAR 00E2
ENCODING 226
SWIDTH 617 0
DWIDTH 12 0
BBX 9 13 1 0
BITMAP
0400
1B00
2080
0000
7C00
6200
0100
0100
3F00
C100
8100
8300
7D80
ENDCHAR
STARTCHAR 00E3
ENCODING 227
SWIDTH 617 0
DWIDTH 12 0
BBX 9 12 1 0
BITMAP
3900
4E00
0000
7C00
6200
0100
0100
3F00
C100
8100
8300
7D80
ENDCHAR
STARTCHAR 00E4
ENCODING 228
SWIDTH 617 0
DWIDTH 12 0
BBX 9 12 1 0
BITMAP
3180
3180
0000
7C00
6200
0100
0100
3F00
C100
8100
8300
7D80
ENDCHAR
STARTCHAR 00E5
ENCODING 229
SWIDTH 617 0
DWIDTH 12 0
BBX 9 15 1 0
BITMAP
1C00
2200
2200
2200
1C00
0000
7C00
6200
0100
0100
3F00
C100
8100
8300
7D80
ENDCHAR
STARTCHAR 00E6
ENCODING 230
SWIDTH 617 0
DWIDTH 12 0
BBX 11 9 0 0
BITMAP
7BC0
4640
0420
0420
7FE0
C400
8400
8E60
73C0
ENDCHAR
STARTCHAR 00E7
ENCODING 231
SWIDTH 617 0
DWIDTH 12 0
BBX 9 13 1 -4
BITMAP
1F80
6180
C180
8080
8000
8000
C080
6380
3E00
0800
0E00
0600
3E00
ENDCHAR
STARTCHAR 00E8
ENCODING 232
SWIDTH 617 0
DWIDTH 12 0
BBX 10 13 1 0
BITMAP
6000
3000
0C00
0000
1F00
6180
C0C0
8040
FFC0
8000
8000
41C0
3F00
ENDCHAR
STARTCHAR 00E9
ENCODING 233
SWIDTH 617 0
DWIDTH 12 0
BBX 10 13 1 0
BITMAP
0300
0600
1800
0000
1F00
6180
C0C0
8040
FFC0
8000
8000
41C0
3F00
ENDCHAR
STARTCHAR 00EA
ENCODING 234
SWIDTH 617 0
DWIDTH 12 0
BBX 10 13 1 0
BITMAP
0400
1B00
2080
0000
1F00
6180
C0C0
8040
FFC0
8000
8000
41C0
3F00
ENDCHAR
STARTCHAR 00EB
ENCODING 235
SWIDTH 617 0
DWIDTH 12 0
BBX 10 12 1 0
BITMAP
3180
3180
0000
1F00
6180
C0C0
8040
FFC0
8000
8000
41C0
3F00
ENDCHAR
STARTCHAR 00EC
ENCODING 236
SWIDTH 617 0
DWIDTH 12 0
BBX 9 13 1 0
BITMAP
6000
3000
0C00
0000
7800
0800
0800
0800
0800
0800
0800
0800
FF80
ENDCHAR
STARTCHAR 00ED
ENCODING 237
SWIDTH 617 0
DWIDTH 12 0
BBX 9 13 1 0
BITMAP
0300
0600
1800
0000
7800
0800
0800
0800
0800
0800
0800
0800
FF80
ENDCHAR
STARTCHAR 00EE
ENCODING 238
SWIDTH 617 0
DWIDTH 12 0
BBX 9 13 1 0
BITMAP
0400
1B00
2080
0000
7800
0800
0800
0800
0800
0800
0800
0800
FF80
ENDCHAR
STARTCHAR 00EF
ENCODING 239
SWIDTH 617 0
DWIDTH 12 0
BBX 9 12 1 0
BITMAP
3180
3180
0000
7800
0800
0800
0800
0800
0800
0800
0800
FF80
ENDCHAR
STARTCHAR 00F0
ENCODING 240
SWIDTH 617 0
DWIDTH 12 0
BBX 10 12 1 0
BITMAP
3B00
1E00
6300
1F80
6180
C0C0
8040
8040
8040
C0C0
6180
1E00
ENDCHAR
STARTCHAR 00F1
ENCODING 241
SWIDTH 617 0
DWIDTH 12 0
BBX 9 12 1 0
BITMAP
3900
4E00
0000
DE00
6300
4100
4100
4100
4100
4100
4100
E380
ENDCHAR
STARTCHAR 00F2
ENCODING 242
SWIDTH 617 0
DWIDTH 12 0
BBX 10 13 1 0
BITMAP
6000
3000
0C00
0000
1E00
6180
C0C0
8040
8040
8040
C0C0
6180
1E00
ENDCHAR
STARTCHAR 00F3
ENCODING 243
SWIDTH 617 0
DWIDTH 12 0
BBX 10 13 1 0
BITMAP
0300
0600
1800
0000
1E00
6180
C0C0
8040
8040
8040
C0C0
6180
1E00
ENDCHAR
STARTCHAR 00F4
ENCODING 244
SWIDTH 617 0
DWIDTH 12 0
BBX 10 13 1 0
BITMAP
0400
1B00
2080
0000
1E00
6180
C0C0
8040
8040
8040
C0C0
6180
1E00
ENDCHAR
STARTCHAR 00F5
ENCODING 245
SWIDTH 617 0
DWIDTH 12 0
BBX 10 12 1 0
BITMAP
3900
4E00
0000
1E00
6180
C0C0
8040
8040
8040
C0C0
6180
1E00
ENDCHAR
STARTCHAR 00F6
ENCODING 246
SWIDTH 617 0
DWIDTH 12 0
BBX 10 12 1 0
BITMAP
3180
3180
0000
1E00
6180
C0C0
8040
8040
8040
C0C0
6180
1E00
ENDCHAR
STARTCHAR 00F7
ENCODING 247
SWIDTH 617 0
DWIDTH 12 0
BBX 10 7 1 2
BITMAP
0C00
0C00
0000
FFC0
0000
0C00
0C00
ENDCHAR
STARTCHAR 00F8
ENCODING 248
SWIDTH 617 0
DWIDTH 12 0
BBX 10 9 1 0
BITMAP
1F40
6180
43C0
8640
8C40
9840
F0C0
6180
BE00
ENDCHAR
STARTCHAR 00F9
ENCODING 249
SWIDTH 617 0
DWIDTH 12 0
BBX 9 13 1 0
BITMAP
C000
6000
1800
0000
C700
4100
4100
4100
4100
4100
4100
6300
3D80
ENDCHAR
STARTCHAR 00FA
ENCODING 250
SWIDTH 617 0
DWIDTH 12 0
BBX 9 13 1 0
BITMAP
0600
0C00
3000
0000
C700
4100
4100
4100
4100
4100
4100
6300
3D80
ENDCHAR
STARTCHAR 00FB
ENCODING 251
SWIDTH 617 0
DWIDTH 12 0
BBX 9 13 1 0
BITMAP
0800
3600
4100
0000
C700
4100
4100
4100
4100
4100
4100
6300
3D80
ENDCHAR
STARTCHAR 00FC
ENCODING 252
SWIDTH 617 0
DWIDTH 12 0
BBX 9 12 1 0
BITMAP
6300
6300
0000
C700
4100
4100
4100
4100
4100
4100
6300
3D80
ENDCHAR
STARTCHAR 00FD
ENCODING 253
SWIDTH 617 0
DWIDTH 12 0
BBX 11 17 1 -4
BITMAP
0300
0600
1800
0000
F9E0
60C0
3080
3180
1900
1B00
0E00
0E00
0400
0C00
0800
1800
FC00
ENDCHAR
STARTCHAR 00FE
ENCODING 254
SWIDTH 617 0
DWIDTH 12 0
BBX 10 16 1 -4
BITMAP
C000
4000
4000
5F00
7180
60C0
4040
4040
4040
60C0
7180
5F00
4000
4000
4000
F800
ENDCHAR
STARTCHAR 00FF
ENCODING 255
SWIDTH 617 0
DWIDTH 12 0
BBX 11 16 1 -4
BITMAP
3180
3180
0000
F9E0
60C0
3080
3180
1900
1B00
0E00
0E00
0400
0C00
0800
1800
FC00
ENDCHAR
ENDFONT
