STARTFONT 2.1
COMMENT
COMMENT Converted from OpenType font "courier_10_pitch.ttf" by "otf2bdf 3.0".
COMMENT
FONT -FreeType-Courier10 BT-Medium-R-Normal--15-110-100-100-P-72-ISO10646-1
SIZE 11 100 100
FONTBOUNDINGBOX 10 17 0 -4
STARTPROPERTIES 19
FOUNDRY "FreeType"
FAMILY_NAME "Courier10 BT"
WEIGHT_NAME "Medium"
SLANT "R"
SETWIDTH_NAME "Normal"
ADD_STYLE_NAME ""
PIXEL_SIZE 15
POINT_SIZE 110
RESOLUTION_X 100
RESOLUTION_Y 100
SPACING "P"
AVERAGE_WIDTH 72
CHARSET_REGISTRY "ISO10646"
CHARSET_ENCODING "1"
FONT_ASCENT 12
FONT_DESCENT 4
COPYRIGHT "Copyright 1990-1993 Bitstream Inc.  All rights reserved."
_OTF_FONTFILE "courier_10_pitch.ttf"
_OTF_PSNAME "Courier10PitchBT-Roman"
ENDPROPERTIES
CHARS 191
STARTCHAR 0020
ENCODING 32
SWIDTH 589 0
DWIDTH 9 0
BBX 0 0 0 0
BITMAP
ENDCHAR
STARTCHAR 0021
ENCODING 33
SWIDTH 589 0
DWIDTH 9 0
BBX 3 9 3 0
BITMAP
40
40
40
40
40
00
E0
E0
E0
ENDCHAR
STARTCHAR 0022
ENCODING 34
SWIDTH 589 0
DWIDTH 9 0
BBX 3 4 3 5
BITMAP
A0
A0
A0
A0
ENDCHAR
STARTCHAR 0023
ENCODING 35
SWIDTH 589 0
DWIDTH 9 0
BBX 5 12 2 -1
BITMAP
50
50
50
50
F8
50
50
F8
50
50
50
50
ENDCHAR
STARTCHAR 0024
ENCODING 36
SWIDTH 589 0
DWIDTH 9 0
BBX 6 12 1 -2
BITMAP
10
7C
84
80
70
1C
04
84
F8
20
20
20
ENDCHAR
STARTCHAR 0025
ENCODING 37
SWIDTH 589 0
DWIDTH 9 0
BBX 6 9 2 0
BITMAP
60
90
90
6C
30
D8
24
24
18
ENDCHAR
STARTCHAR 0026
ENCODING 38
SWIDTH 589 0
DWIDTH 9 0
BBX 6 9 1 0
BITMAP
30
58
40
60
64
98
98
98
7C
ENDCHAR
STARTCHAR 0027
ENCODING 39
SWIDTH 589 0
DWIDTH 9 0
BBX 1 4 4 5
BITMAP
80
80
80
80
ENDCHAR
STARTCHAR 0028
ENCODING 40
SWIDTH 589 0
DWIDTH 9 0
BBX 3 12 3 -3
BITMAP
20
40
40
80
80
80
80
80
80
40
40
20
ENDCHAR
STARTCHAR 0029
ENCODING 41
SWIDTH 589 0
DWIDTH 9 0
BBX 3 12 3 -3
BITMAP
80
40
40
20
20
20
20
20
20
40
40
80
ENDCHAR
STARTCHAR 002A
ENCODING 42
SWIDTH 589 0
DWIDTH 9 0
BBX 5 6 2 3
BITMAP
20
A8
F8
20
50
50
ENDCHAR
STARTCHAR 002B
ENCODING 43
SWIDTH 589 0
DWIDTH 9 0
BBX 7 7 1 1
BITMAP
10
10
10
FE
10
10
10
ENDCHAR
STARTCHAR 002C
ENCODING 44
SWIDTH 589 0
DWIDTH 9 0
BBX 3 4 3 -1
BITMAP
60
40
C0
80
ENDCHAR
STARTCHAR 002D
ENCODING 45
SWIDTH 589 0
DWIDTH 9 0
BBX 7 1 1 3
BITMAP
FE
ENDCHAR
STARTCHAR 002E
ENCODING 46
SWIDTH 589 0
DWIDTH 9 0
BBX 3 3 3 0
BITMAP
E0
E0
E0
ENDCHAR
STARTCHAR 002F
ENCODING 47
SWIDTH 589 0
DWIDTH 9 0
BBX 6 12 2 -1
BITMAP
04
0C
08
08
10
10
20
20
40
40
C0
80
ENDCHAR
STARTCHAR 0030
ENCODING 48
SWIDTH 589 0
DWIDTH 9 0
BBX 6 9 2 0
BITMAP
78
48
84
84
84
84
84
48
78
ENDCHAR
STARTCHAR 0031
ENCODING 49
SWIDTH 589 0
DWIDTH 9 0
BBX 5 9 2 0
BITMAP
60
E0
20
20
20
20
20
20
F8
ENDCHAR
STARTCHAR 0032
ENCODING 50
SWIDTH 589 0
DWIDTH 9 0
BBX 6 9 1 0
BITMAP
78
84
04
04
08
10
60
C4
FC
ENDCHAR
STARTCHAR 0033
ENCODING 51
SWIDTH 589 0
DWIDTH 9 0
BBX 6 9 2 0
BITMAP
38
44
04
38
0C
04
04
8C
78
ENDCHAR
STARTCHAR 0034
ENCODING 52
SWIDTH 589 0
DWIDTH 9 0
BBX 6 9 1 0
BITMAP
08
18
28
28
48
C8
FC
08
1C
ENDCHAR
STARTCHAR 0035
ENCODING 53
SWIDTH 589 0
DWIDTH 9 0
BBX 6 9 2 0
BITMAP
F8
80
80
F8
8C
04
04
8C
F8
ENDCHAR
STARTCHAR 0036
ENCODING 54
SWIDTH 589 0
DWIDTH 9 0
BBX 6 9 2 0
BITMAP
3C
60
40
F8
CC
84
84
4C
78
ENDCHAR
STARTCHAR 0037
ENCODING 55
SWIDTH 589 0
DWIDTH 9 0
BBX 6 9 2 0
BITMAP
FC
84
08
08
08
10
10
30
20
ENDCHAR
STARTCHAR 0038
ENCODING 56
SWIDTH 589 0
DWIDTH 9 0
BBX 6 9 2 0
BITMAP
78
84
84
78
CC
84
84
CC
78
ENDCHAR
STARTCHAR 0039
ENCODING 57
SWIDTH 589 0
DWIDTH 9 0
BBX 6 9 2 0
BITMAP
78
C8
84
84
CC
7C
08
18
F0
ENDCHAR
STARTCHAR 003A
ENCODING 58
SWIDTH 589 0
DWIDTH 9 0
BBX 3 7 3 0
BITMAP
E0
E0
E0
00
E0
E0
E0
ENDCHAR
STARTCHAR 003B
ENCODING 59
SWIDTH 589 0
DWIDTH 9 0
BBX 3 8 3 -1
BITMAP
E0
E0
E0
00
60
C0
C0
80
ENDCHAR
STARTCHAR 003C
ENCODING 60
SWIDTH 589 0
DWIDTH 9 0
BBX 8 7 1 1
BITMAP
03
0C
70
C0
30
0C
03
ENDCHAR
STARTCHAR 003D
ENCODING 61
SWIDTH 589 0
DWIDTH 9 0
BBX 8 3 1 3
BITMAP
FF
00
FF
ENDCHAR
STARTCHAR 003E
ENCODING 62
SWIDTH 589 0
DWIDTH 9 0
BBX 8 7 1 1
BITMAP
C0
30
0C
03
0E
30
C0
ENDCHAR
STARTCHAR 003F
ENCODING 63
SWIDTH 589 0
DWIDTH 9 0
BBX 6 9 2 0
BITMAP
F8
84
04
18
20
00
70
70
70
ENDCHAR
STARTCHAR 0040
ENCODING 64
SWIDTH 589 0
DWIDTH 9 0
BBX 5 11 2 -1
BITMAP
70
48
88
88
B8
C8
C8
B8
80
40
38
ENDCHAR
STARTCHAR 0041
ENCODING 65
SWIDTH 589 0
DWIDTH 9 0
BBX 9 9 0 0
BITMAP
7800
1400
1400
2400
2200
3E00
4300
4100
F780
ENDCHAR
STARTCHAR 0042
ENCODING 66
SWIDTH 589 0
DWIDTH 9 0
BBX 8 9 1 0
BITMAP
FC
42
42
42
7E
41
41
41
FE
ENDCHAR
STARTCHAR 0043
ENCODING 67
SWIDTH 589 0
DWIDTH 9 0
BBX 7 9 1 0
BITMAP
3E
42
82
80
80
80
80
42
3C
ENDCHAR
STARTCHAR 0044
ENCODING 68
SWIDTH 589 0
DWIDTH 9 0
BBX 8 9 1 0
BITMAP
FC
42
41
41
41
41
41
42
FC
ENDCHAR
STARTCHAR 0045
ENCODING 69
SWIDTH 589 0
DWIDTH 9 0
BBX 7 9 1 0
BITMAP
FE
42
42
48
78
48
42
42
FE
ENDCHAR
STARTCHAR 0046
ENCODING 70
SWIDTH 589 0
DWIDTH 9 0
BBX 7 9 1 0
BITMAP
FE
42
42
48
78
48
40
40
F0
ENDCHAR
STARTCHAR 0047
ENCODING 71
SWIDTH 589 0
DWIDTH 9 0
BBX 9 9 1 0
BITMAP
3F00
6300
C100
8000
8000
8F80
C100
6100
3F00
ENDCHAR
STARTCHAR 0048
ENCODING 72
SWIDTH 589 0
DWIDTH 9 0
BBX 8 9 1 0
BITMAP
E7
42
42
42
7E
42
42
42
E7
ENDCHAR
STARTCHAR 0049
ENCODING 73
SWIDTH 589 0
DWIDTH 9 0
BBX 7 9 1 0
BITMAP
FE
10
10
10
10
10
10
10
FE
ENDCHAR
STARTCHAR 004A
ENCODING 74
SWIDTH 589 0
DWIDTH 9 0
BBX 8 9 1 0
BITMAP
3F
04
04
04
04
84
84
CC
78
ENDCHAR
STARTCHAR 004B
ENCODING 75
SWIDTH 589 0
DWIDTH 9 0
BBX 8 9 1 0
BITMAP
EF
44
48
50
78
48
44
46
E3
ENDCHAR
STARTCHAR 004C
ENCODING 76
SWIDTH 589 0
DWIDTH 9 0
BBX 8 9 0 0
BITMAP
F8
20
20
20
20
21
21
21
FF
ENDCHAR
STARTCHAR 004D
ENCODING 77
SWIDTH 589 0
DWIDTH 9 0
BBX 9 9 0 0
BITMAP
E380
6300
6300
5500
5500
5D00
4100
4100
E380
ENDCHAR
STARTCHAR 004E
ENCODING 78
SWIDTH 589 0
DWIDTH 9 0
BBX 8 9 1 0
BITMAP
EF
62
72
52
5A
4A
46
46
F2
ENDCHAR
STARTCHAR 004F
ENCODING 79
SWIDTH 589 0
DWIDTH 9 0
BBX 8 9 1 0
BITMAP
3C
42
81
81
81
81
81
42
3C
ENDCHAR
STARTCHAR 0050
ENCODING 80
SWIDTH 589 0
DWIDTH 9 0
BBX 7 9 1 0
BITMAP
F8
46
42
42
46
78
40
40
E0
ENDCHAR
STARTCHAR 0051
ENCODING 81
SWIDTH 589 0
DWIDTH 9 0
BBX 8 12 1 -3
BITMAP
3C
42
81
81
81
81
81
42
3C
20
39
66
ENDCHAR
STARTCHAR 0052
ENCODING 82
SWIDTH 589 0
DWIDTH 9 0
BBX 8 9 1 0
BITMAP
FC
42
42
42
7C
4C
44
42
E3
ENDCHAR
STARTCHAR 0053
ENCODING 83
SWIDTH 589 0
DWIDTH 9 0
BBX 7 9 1 0
BITMAP
3E
C2
82
C0
7C
02
82
C6
FC
ENDCHAR
STARTCHAR 0054
ENCODING 84
SWIDTH 589 0
DWIDTH 9 0
BBX 7 9 1 0
BITMAP
FE
92
92
92
10
10
10
10
7C
ENDCHAR
STARTCHAR 0055
ENCODING 85
SWIDTH 589 0
DWIDTH 9 0
BBX 8 9 1 0
BITMAP
E7
42
42
42
42
42
42
66
3C
ENDCHAR
STARTCHAR 0056
ENCODING 86
SWIDTH 589 0
DWIDTH 9 0
BBX 9 9 0 0
BITMAP
F780
4100
6100
2200
2200
1600
1400
1C00
0800
ENDCHAR
STARTCHAR 0057
ENCODING 87
SWIDTH 589 0
DWIDTH 9 0
BBX 9 9 0 0
BITMAP
F780
4100
4900
4900
5500
5500
7500
2200
2200
ENDCHAR
STARTCHAR 0058
ENCODING 88
SWIDTH 589 0
DWIDTH 9 0
BBX 8 9 1 0
BITMAP
E7
66
24
18
18
3C
24
42
E7
ENDCHAR
STARTCHAR 0059
ENCODING 89
SWIDTH 589 0
DWIDTH 9 0
BBX 7 9 1 0
BITMAP
EE
44
64
28
18
10
10
10
7C
ENDCHAR
STARTCHAR 005A
ENCODING 90
SWIDTH 589 0
DWIDTH 9 0
BBX 6 9 2 0
BITMAP
FC
8C
88
90
30
64
44
84
FC
ENDCHAR
STARTCHAR 005B
ENCODING 91
SWIDTH 589 0
DWIDTH 9 0
BBX 3 12 3 -3
BITMAP
E0
80
80
80
80
80
80
80
80
80
80
E0
ENDCHAR
STARTCHAR 005C
ENCODING 92
SWIDTH 589 0
DWIDTH 9 0
BBX 6 12 2 -1
BITMAP
80
C0
40
40
20
20
10
10
08
08
0C
04
ENDCHAR
STARTCHAR 005D
ENCODING 93
SWIDTH 589 0
DWIDTH 9 0
BBX 3 12 3 -3
BITMAP
E0
20
20
20
20
20
20
20
20
20
20
E0
ENDCHAR
STARTCHAR 005E
ENCODING 94
SWIDTH 589 0
DWIDTH 9 0
BBX 5 3 2 7
BITMAP
20
50
88
ENDCHAR
STARTCHAR 005F
ENCODING 95
SWIDTH 589 0
DWIDTH 9 0
BBX 10 1 0 -4
BITMAP
FFC0
ENDCHAR
STARTCHAR 0060
ENCODING 96
SWIDTH 589 0
DWIDTH 9 0
BBX 4 3 2 8
BITMAP
80
60
10
ENDCHAR
STARTCHAR 0061
ENCODING 97
SWIDTH 589 0
DWIDTH 9 0
BBX 7 7 1 0
BITMAP
78
44
04
7C
84
8C
76
ENDCHAR
STARTCHAR 0062
ENCODING 98
SWIDTH 589 0
DWIDTH 9 0
BBX 8 10 1 0
BITMAP
C0
40
40
5C
62
41
41
41
62
DC
ENDCHAR
STARTCHAR 0063
ENCODING 99
SWIDTH 589 0
DWIDTH 9 0
BBX 7 7 1 0
BITMAP
3E
46
82
80
80
46
3C
ENDCHAR
STARTCHAR 0064
ENCODING 100
SWIDTH 589 0
DWIDTH 9 0
BBX 8 10 1 0
BITMAP
06
02
02
3A
46
82
82
82
46
3B
ENDCHAR
STARTCHAR 0065
ENCODING 101
SWIDTH 589 0
DWIDTH 9 0
BBX 8 7 1 0
BITMAP
3C
42
81
FF
80
40
3F
ENDCHAR
STARTCHAR 0066
ENCODING 102
SWIDTH 589 0
DWIDTH 9 0
BBX 7 10 1 0
BITMAP
1E
20
20
FC
20
20
20
20
20
FC
ENDCHAR
STARTCHAR 0067
ENCODING 103
SWIDTH 589 0
DWIDTH 9 0
BBX 8 10 1 -3
BITMAP
3B
46
82
82
82
46
3A
02
06
7C
ENDCHAR
STARTCHAR 0068
ENCODING 104
SWIDTH 589 0
DWIDTH 9 0
BBX 8 10 1 0
BITMAP
C0
40
40
5C
62
42
42
42
42
E7
ENDCHAR
STARTCHAR 0069
ENCODING 105
SWIDTH 589 0
DWIDTH 9 0
BBX 7 10 1 0
BITMAP
10
10
00
70
10
10
10
10
10
FE
ENDCHAR
STARTCHAR 006A
ENCODING 106
SWIDTH 589 0
DWIDTH 9 0
BBX 5 13 2 -3
BITMAP
10
10
00
F8
08
08
08
08
08
08
08
08
F0
ENDCHAR
STARTCHAR 006B
ENCODING 107
SWIDTH 589 0
DWIDTH 9 0
BBX 8 10 1 0
BITMAP
C0
40
40
4E
48
70
70
48
44
CF
ENDCHAR
STARTCHAR 006C
ENCODING 108
SWIDTH 589 0
DWIDTH 9 0
BBX 7 10 1 0
BITMAP
F0
10
10
10
10
10
10
10
10
FE
ENDCHAR
STARTCHAR 006D
ENCODING 109
SWIDTH 589 0
DWIDTH 9 0
BBX 9 7 0 0
BITMAP
FF00
4900
4900
4900
4900
4900
ED80
ENDCHAR
STARTCHAR 006E
ENCODING 110
SWIDTH 589 0
DWIDTH 9 0
BBX 8 7 1 0
BITMAP
DC
62
42
42
42
42
E7
ENDCHAR
STARTCHAR 006F
ENCODING 111
SWIDTH 589 0
DWIDTH 9 0
BBX 8 7 1 0
BITMAP
3C
42
81
81
81
42
3C
ENDCHAR
STARTCHAR 0070
ENCODING 112
SWIDTH 589 0
DWIDTH 9 0
BBX 8 10 1 -3
BITMAP
DC
62
41
41
41
62
5C
40
40
F0
ENDCHAR
STARTCHAR 0071
ENCODING 113
SWIDTH 589 0
DWIDTH 9 0
BBX 8 10 1 -3
BITMAP
3B
46
82
82
82
46
3A
02
02
0F
ENDCHAR
STARTCHAR 0072
ENCODING 114
SWIDTH 589 0
DWIDTH 9 0
BBX 8 7 1 0
BITMAP
EF
30
20
20
20
20
FC
ENDCHAR
STARTCHAR 0073
ENCODING 115
SWIDTH 589 0
DWIDTH 9 0
BBX 6 7 1 0
BITMAP
7C
84
80
FC
04
84
F8
ENDCHAR
STARTCHAR 0074
ENCODING 116
SWIDTH 589 0
DWIDTH 9 0
BBX 8 9 1 0
BITMAP
20
20
FE
20
20
20
20
23
1E
ENDCHAR
STARTCHAR 0075
ENCODING 117
SWIDTH 589 0
DWIDTH 9 0
BBX 8 7 1 0
BITMAP
CE
42
42
42
42
46
3B
ENDCHAR
STARTCHAR 0076
ENCODING 118
SWIDTH 589 0
DWIDTH 9 0
BBX 9 7 0 0
BITMAP
E780
4300
6200
2600
2400
1C00
1800
ENDCHAR
STARTCHAR 0077
ENCODING 119
SWIDTH 589 0
DWIDTH 9 0
BBX 9 7 0 0
BITMAP
E380
4100
4900
5900
3700
3600
3600
ENDCHAR
STARTCHAR 0078
ENCODING 120
SWIDTH 589 0
DWIDTH 9 0
BBX 8 7 1 0
BITMAP
E7
24
3C
18
3C
66
E7
ENDCHAR
STARTCHAR 0079
ENCODING 121
SWIDTH 589 0
DWIDTH 9 0
BBX 8 10 0 -3
BITMAP
E7
42
26
24
1C
18
18
10
10
F8
ENDCHAR
STARTCHAR 007A
ENCODING 122
SWIDTH 589 0
DWIDTH 9 0
BBX 6 7 2 0
BITMAP
FC
88
10
30
60
C4
FC
ENDCHAR
STARTCHAR 007B
ENCODING 123
SWIDTH 589 0
DWIDTH 9 0
BBX 5 12 2 -3
BITMAP
18
20
20
20
20
C0
20
20
20
20
20
18
ENDCHAR
STARTCHAR 007C
ENCODING 124
SWIDTH 589 0
DWIDTH 9 0
BBX 1 16 4 -4
BITMAP
80
80
80
80
80
80
80
80
80
80
80
80
80
80
80
80
ENDCHAR
STARTCHAR 007D
ENCODING 125
SWIDTH 589 0
DWIDTH 9 0
BBX 5 12 2 -3
BITMAP
C0
20
20
20
20
18
20
20
20
20
20
C0
ENDCHAR
STARTCHAR 007E
ENCODING 126
SWIDTH 589 0
DWIDTH 9 0
BBX 7 2 1 3
BITMAP
72
9C
ENDCHAR
STARTCHAR 00A0
ENCODING 160
SWIDTH 589 0
DWIDTH 9 0
BBX 0 0 0 0
BITMAP
ENDCHAR
STARTCHAR 00A1
ENCODING 161
SWIDTH 589 0
DWIDTH 9 0
BBX 3 9 3 0
BITMAP
E0
E0
E0
00
40
40
40
40
40
ENDCHAR
STARTCHAR 00A2
ENCODING 162
SWIDTH 589 0
DWIDTH 9 0
BBX 6 10 2 0
BITMAP
10
10
7C
C4
80
80
C4
78
20
20
ENDCHAR
STARTCHAR 00A3
ENCODING 163
SWIDTH 589 0
DWIDTH 9 0
BBX 6 9 2 0
BITMAP
78
88
80
80
F8
40
40
40
FC
ENDCHAR
STARTCHAR 00A4
ENCODING 164
SWIDTH 589 0
DWIDTH 9 0
BBX 8 8 1 3
BITMAP
81
5A
24
42
42
24
5A
81
ENDCHAR
STARTCHAR 00A5
ENCODING 165
SWIDTH 589 0
DWIDTH 9 0
BBX 7 9 1 0
BITMAP
EE
44
E6
28
FE
10
10
10
7C
ENDCHAR
STARTCHAR 00A6
ENCODING 166
SWIDTH 589 0
DWIDTH 9 0
BBX 1 14 4 -3
BITMAP
80
80
80
80
80
80
00
00
80
80
80
80
80
80
ENDCHAR
STARTCHAR 00A7
ENCODING 167
SWIDTH 589 0
DWIDTH 9 0
BBX 7 10 1 -1
BITMAP
3C
44
C0
B0
98
66
12
0E
44
78
ENDCHAR
STARTCHAR 00A8
ENCODING 168
SWIDTH 589 0
DWIDTH 9 0
BBX 6 2 2 8
BITMAP
CC
CC
ENDCHAR
STARTCHAR 00A9
ENCODING 169
SWIDTH 589 0
DWIDTH 9 0
BBX 9 9 0 1
BITMAP
3E00
6300
DF80
A280
A080
A280
DF80
6300
3E00
ENDCHAR
STARTCHAR 00AA
ENCODING 170
SWIDTH 589 0
DWIDTH 9 0
BBX 6 8 2 1
BITMAP
70
08
78
88
88
7C
00
FC
ENDCHAR
STARTCHAR 00AB
ENCODING 171
SWIDTH 589 0
DWIDTH 9 0
BBX 4 6 2 1
BITMAP
50
50
A0
A0
50
50
ENDCHAR
STARTCHAR 00AC
ENCODING 172
SWIDTH 589 0
DWIDTH 9 0
BBX 7 4 1 3
BITMAP
FE
02
02
02
ENDCHAR
STARTCHAR 00AD
ENCODING 173
SWIDTH 589 0
DWIDTH 9 0
BBX 7 1 1 3
BITMAP
FE
ENDCHAR
STARTCHAR 00AE
ENCODING 174
SWIDTH 589 0
DWIDTH 9 0
BBX 9 9 0 1
BITMAP
3E00
6300
FD80
9480
9C80
9480
FF80
6300
3E00
ENDCHAR
STARTCHAR 00AF
ENCODING 175
SWIDTH 589 0
DWIDTH 9 0
BBX 5 1 2 8
BITMAP
F8
ENDCHAR
STARTCHAR 00B0
ENCODING 176
SWIDTH 589 0
DWIDTH 9 0
BBX 5 5 2 5
BITMAP
70
88
88
88
70
ENDCHAR
STARTCHAR 00B1
ENCODING 177
SWIDTH 589 0
DWIDTH 9 0
BBX 5 9 2 1
BITMAP
20
20
20
F8
20
20
20
00
F8
ENDCHAR
STARTCHAR 00B2
ENCODING 178
SWIDTH 589 0
DWIDTH 9 0
BBX 4 6 2 3
BITMAP
60
90
10
20
D0
F0
ENDCHAR
STARTCHAR 00B3
ENCODING 179
SWIDTH 589 0
DWIDTH 9 0
BBX 5 6 2 3
BITMAP
78
88
30
08
88
F0
ENDCHAR
STARTCHAR 00B4
ENCODING 180
SWIDTH 589 0
DWIDTH 9 0
BBX 4 3 3 8
BITMAP
10
60
80
ENDCHAR
STARTCHAR 00B5
ENCODING 181
SWIDTH 589 0
DWIDTH 9 0
BBX 8 10 1 -3
BITMAP
61
21
63
42
42
46
7F
C0
80
80
ENDCHAR
STARTCHAR 00B6
ENCODING 182
SWIDTH 589 0
DWIDTH 9 0
BBX 7 10 1 -1
BITMAP
3E
F4
F4
F4
F4
74
14
14
14
76
ENDCHAR
STARTCHAR 00B7
ENCODING 183
SWIDTH 589 0
DWIDTH 9 0
BBX 3 3 3 3
BITMAP
E0
E0
E0
ENDCHAR
STARTCHAR 00B8
ENCODING 184
SWIDTH 589 0
DWIDTH 9 0
BBX 4 3 3 -3
BITMAP
30
10
F0
ENDCHAR
STARTCHAR 00B9
ENCODING 185
SWIDTH 589 0
DWIDTH 9 0
BBX 5 6 3 3
BITMAP
E0
20
20
20
20
F8
ENDCHAR
STARTCHAR 00BA
ENCODING 186
SWIDTH 589 0
DWIDTH 9 0
BBX 6 8 1 1
BITMAP
78
CC
84
84
CC
78
00
FC
ENDCHAR
STARTCHAR 00BB
ENCODING 187
SWIDTH 589 0
DWIDTH 9 0
BBX 4 6 2 1
BITMAP
A0
A0
50
50
A0
A0
ENDCHAR
STARTCHAR 00BC
ENCODING 188
SWIDTH 589 0
DWIDTH 9 0
BBX 7 10 1 -1
BITMAP
C0
40
40
42
EC
7C
94
24
3E
04
ENDCHAR
STARTCHAR 00BD
ENCODING 189
SWIDTH 589 0
DWIDTH 9 0
BBX 7 10 1 -1
BITMAP
C0
40
40
42
EC
7C
82
06
08
1E
ENDCHAR
STARTCHAR 00BE
ENCODING 190
SWIDTH 589 0
DWIDTH 9 0
BBX 7 10 1 -1
BITMAP
F0
10
60
10
FE
6C
8C
14
3E
04
ENDCHAR
STARTCHAR 00BF
ENCODING 191
SWIDTH 589 0
DWIDTH 9 0
BBX 6 9 2 0
BITMAP
38
38
38
00
10
60
80
84
7C
ENDCHAR
STARTCHAR 00C0
ENCODING 192
SWIDTH 589 0
DWIDTH 9 0
BBX 9 13 0 0
BITMAP
2000
1800
0400
0000
7800
1400
1400
2400
2200
3E00
4300
4100
F780
ENDCHAR
STARTCHAR 00C1
ENCODING 193
SWIDTH 589 0
DWIDTH 9 0
BBX 9 13 0 0
BITMAP
0200
0C00
1000
0000
7800
1400
1400
2400
2200
3E00
4300
4100
F780
ENDCHAR
STARTCHAR 00C2
ENCODING 194
SWIDTH 589 0
DWIDTH 9 0
BBX 9 12 0 0
BITMAP
0800
3600
0000
7800
1400
1400
2400
2200
3E00
4300
4100
F780
ENDCHAR
STARTCHAR 00C3
ENCODING 195
SWIDTH 589 0
DWIDTH 9 0
BBX 9 12 0 0
BITMAP
1A00
2C00
0000
7800
1400
1400
2400
2200
3E00
4300
4100
F780
ENDCHAR
STARTCHAR 00C4
ENCODING 196
SWIDTH 589 0
DWIDTH 9 0
BBX 9 12 0 0
BITMAP
3300
3300
0000
7800
1400
1400
2400
2200
3E00
4300
4100
F780
ENDCHAR
STARTCHAR 00C5
ENCODING 197
SWIDTH 589 0
DWIDTH 9 0
BBX 9 13 0 0
BITMAP
1800
2400
2400
1800
7800
1C00
1400
2400
2200
3E00
4300
4100
E780
ENDCHAR
STARTCHAR 00C6
ENCODING 198
SWIDTH 589 0
DWIDTH 9 0
BBX 9 9 0 0
BITMAP
3F80
1880
2800
2800
2F00
3800
4880
4880
FF80
ENDCHAR
STARTCHAR 00C7
ENCODING 199
SWIDTH 589 0
DWIDTH 9 0
BBX 7 12 1 -3
BITMAP
3E
42
82
80
80
80
80
42
3C
0C
04
3C
ENDCHAR
STARTCHAR 00C8
ENCODING 200
SWIDTH 589 0
DWIDTH 9 0
BBX 7 13 1 0
BITMAP
40
30
08
00
FE
42
42
48
78
48
42
42
FE
ENDCHAR
STARTCHAR 00C9
ENCODING 201
SWIDTH 589 0
DWIDTH 9 0
BBX 7 13 1 0
BITMAP
04
18
20
00
FE
42
42
48
78
48
42
42
FE
ENDCHAR
STARTCHAR 00CA
ENCODING 202
SWIDTH 589 0
DWIDTH 9 0
BBX 7 12 1 0
BITMAP
10
6C
00
FE
42
42
48
78
48
42
42
FE
ENDCHAR
STARTCHAR 00CB
ENCODING 203
SWIDTH 589 0
DWIDTH 9 0
BBX 7 12 1 0
BITMAP
66
66
00
FE
42
42
48
78
48
42
42
FE
ENDCHAR
STARTCHAR 00CC
ENCODING 204
SWIDTH 589 0
DWIDTH 9 0
BBX 7 13 1 0
BITMAP
40
30
08
00
FE
10
10
10
10
10
10
10
FE
ENDCHAR
STARTCHAR 00CD
ENCODING 205
SWIDTH 589 0
DWIDTH 9 0
BBX 7 13 1 0
BITMAP
04
18
20
00
FE
10
10
10
10
10
10
10
FE
ENDCHAR
STARTCHAR 00CE
ENCODING 206
SWIDTH 589 0
DWIDTH 9 0
BBX 7 12 1 0
BITMAP
10
6C
00
FE
10
10
10
10
10
10
10
FE
ENDCHAR
STARTCHAR 00CF
ENCODING 207
SWIDTH 589 0
DWIDTH 9 0
BBX 7 12 1 0
BITMAP
66
66
00
FE
10
10
10
10
10
10
10
FE
ENDCHAR
STARTCHAR 00D0
ENCODING 208
SWIDTH 589 0
DWIDTH 9 0
BBX 8 9 1 0
BITMAP
FC
42
41
41
F9
41
41
42
FC
ENDCHAR
STARTCHAR 00D1
ENCODING 209
SWIDTH 589 0
DWIDTH 9 0
BBX 8 12 1 0
BITMAP
34
58
00
EF
62
72
52
5A
4A
46
46
F2
ENDCHAR
STARTCHAR 00D2
ENCODING 210
SWIDTH 589 0
DWIDTH 9 0
BBX 8 13 1 0
BITMAP
40
30
08
00
3C
42
81
81
81
81
81
42
3C
ENDCHAR
STARTCHAR 00D3
ENCODING 211
SWIDTH 589 0
DWIDTH 9 0
BBX 8 13 1 0
BITMAP
04
18
20
00
3C
42
81
81
81
81
81
42
3C
ENDCHAR
STARTCHAR 00D4
ENCODING 212
SWIDTH 589 0
DWIDTH 9 0
BBX 8 12 1 0
BITMAP
10
6C
00
3C
42
81
81
81
81
81
42
3C
ENDCHAR
STARTCHAR 00D5
ENCODING 213
SWIDTH 589 0
DWIDTH 9 0
BBX 8 12 1 0
BITMAP
34
58
00
3C
42
81
81
81
81
81
42
3C
ENDCHAR
STARTCHAR 00D6
ENCODING 214
SWIDTH 589 0
DWIDTH 9 0
BBX 8 12 1 0
BITMAP
66
66
00
3C
42
81
81
81
81
81
42
3C
ENDCHAR
STARTCHAR 00D7
ENCODING 215
SWIDTH 589 0
DWIDTH 9 0
BBX 6 6 2 2
BITMAP
84
48
30
30
48
84
ENDCHAR
STARTCHAR 00D8
ENCODING 216
SWIDTH 589 0
DWIDTH 9 0
BBX 8 11 1 -1
BITMAP
02
3E
46
85
89
99
91
A1
62
7C
80
ENDCHAR
STARTCHAR 00D9
ENCODING 217
SWIDTH 589 0
DWIDTH 9 0
BBX 8 13 1 0
BITMAP
40
30
08
00
E7
42
42
42
42
42
42
66
3C
ENDCHAR
STARTCHAR 00DA
ENCODING 218
SWIDTH 589 0
DWIDTH 9 0
BBX 8 13 1 0
BITMAP
04
18
20
00
E7
42
42
42
42
42
42
66
3C
ENDCHAR
STARTCHAR 00DB
ENCODING 219
SWIDTH 589 0
DWIDTH 9 0
BBX 8 12 1 0
BITMAP
10
6C
00
E7
42
42
42
42
42
42
66
3C
ENDCHAR
STARTCHAR 00DC
ENCODING 220
SWIDTH 589 0
DWIDTH 9 0
BBX 8 12 1 0
BITMAP
66
66
00
E7
42
42
42
42
42
42
66
3C
ENDCHAR
STARTCHAR 00DD
ENCODING 221
SWIDTH 589 0
DWIDTH 9 0
BBX 7 13 1 0
BITMAP
04
18
20
00
EE
44
64
28
18
10
10
10
7C
ENDCHAR
STARTCHAR 00DE
ENCODING 222
SWIDTH 589 0
DWIDTH 9 0
BBX 8 9 0 0
BITMAP
F8
20
3E
23
21
23
3E
20
F8
ENDCHAR
STARTCHAR 00DF
ENCODING 223
SWIDTH 589 0
DWIDTH 9 0
BBX 9 10 0 0
BITMAP
1E00
2100
2100
2100
2E00
2180
2080
2080
2180
EF00
ENDCHAR
STARTCHAR 00E0
ENCODING 224
SWIDTH 589 0
DWIDTH 9 0
BBX 7 11 1 0
BITMAP
40
30
08
00
78
44
04
7C
84
8C
76
ENDCHAR
STARTCHAR 00E1
ENCODING 225
SWIDTH 589 0
DWIDTH 9 0
BBX 7 11 1 0
BITMAP
04
18
20
00
78
44
04
7C
84
8C
76
ENDCHAR
STARTCHAR 00E2
ENCODING 226
SWIDTH 589 0
DWIDTH 9 0
BBX 7 10 1 0
BITMAP
10
6C
00
78
44
04
7C
84
8C
76
ENDCHAR
STARTCHAR 00E3
ENCODING 227
SWIDTH 589 0
DWIDTH 9 0
BBX 7 10 1 0
BITMAP
34
58
00
78
44
04
7C
84
8C
76
ENDCHAR
STARTCHAR 00E4
ENCODING 228
SWIDTH 589 0
DWIDTH 9 0
BBX 7 10 1 0
BITMAP
66
66
00
78
44
04
7C
84
8C
76
ENDCHAR
STARTCHAR 00E5
ENCODING 229
SWIDTH 589 0
DWIDTH 9 0
BBX 7 12 1 0
BITMAP
30
48
48
30
00
78
44
04
7C
84
8C
76
ENDCHAR
STARTCHAR 00E6
ENCODING 230
SWIDTH 589 0
DWIDTH 9 0
BBX 9 7 0 0
BITMAP
7700
4880
0880
7F80
8800
8800
7780
ENDCHAR
STARTCHAR 00E7
ENCODING 231
SWIDTH 589 0
DWIDTH 9 0
BBX 7 10 1 -3
BITMAP
3E
46
82
80
80
46
3C
0C
04
3C
ENDCHAR
STARTCHAR 00E8
ENCODING 232
SWIDTH 589 0
DWIDTH 9 0
BBX 8 11 1 0
BITMAP
40
30
08
00
3C
42
81
FF
80
40
3F
ENDCHAR
STARTCHAR 00E9
ENCODING 233
SWIDTH 589 0
DWIDTH 9 0
BBX 8 11 1 0
BITMAP
04
18
20
00
3C
42
81
FF
80
40
3F
ENDCHAR
STARTCHAR 00EA
ENCODING 234
SWIDTH 589 0
DWIDTH 9 0
BBX 8 10 1 0
BITMAP
10
6C
00
3C
42
81
FF
80
40
3F
ENDCHAR
STARTCHAR 00EB
ENCODING 235
SWIDTH 589 0
DWIDTH 9 0
BBX 8 10 1 0
BITMAP
66
66
00
3C
42
81
FF
80
40
3F
ENDCHAR
STARTCHAR 00EC
ENCODING 236
SWIDTH 589 0
DWIDTH 9 0
BBX 7 11 1 0
BITMAP
40
30
08
00
70
10
10
10
10
10
FE
ENDCHAR
STARTCHAR 00ED
ENCODING 237
SWIDTH 589 0
DWIDTH 9 0
BBX 7 11 1 0
BITMAP
04
18
20
00
70
10
10
10
10
10
FE
ENDCHAR
STARTCHAR 00EE
ENCODING 238
SWIDTH 589 0
DWIDTH 9 0
BBX 7 10 1 0
BITMAP
10
6C
00
70
10
10
10
10
10
FE
ENDCHAR
STARTCHAR 00EF
ENCODING 239
SWIDTH 589 0
DWIDTH 9 0
BBX 7 10 1 0
BITMAP
66
66
00
70
10
10
10
10
10
FE
ENDCHAR
STARTCHAR 00F0
ENCODING 240
SWIDTH 589 0
DWIDTH 9 0
BBX 8 10 1 0
BITMAP
36
18
64
3E
43
81
81
81
42
3C
ENDCHAR
STARTCHAR 00F1
ENCODING 241
SWIDTH 589 0
DWIDTH 9 0
BBX 8 10 1 0
BITMAP
34
58
00
DC
62
42
42
42
42
E7
ENDCHAR
STARTCHAR 00F2
ENCODING 242
SWIDTH 589 0
DWIDTH 9 0
BBX 8 11 1 0
BITMAP
40
30
08
00
3C
42
81
81
81
42
3C
ENDCHAR
STARTCHAR 00F3
ENCODING 243
SWIDTH 589 0
DWIDTH 9 0
BBX 8 11 1 0
BITMAP
04
18
20
00
3C
42
81
81
81
42
3C
ENDCHAR
STARTCHAR 00F4
ENCODING 244
SWIDTH 589 0
DWIDTH 9 0
BBX 8 10 1 0
BITMAP
10
6C
00
3C
42
81
81
81
42
3C
ENDCHAR
STARTCHAR 00F5
ENCODING 245
SWIDTH 589 0
DWIDTH 9 0
BBX 8 10 1 0
BITMAP
34
58
00
3C
42
81
81
81
42
3C
ENDCHAR
STARTCHAR 00F6
ENCODING 246
SWIDTH 589 0
DWIDTH 9 0
BBX 8 10 1 0
BITMAP
66
66
00
3C
42
81
81
81
42
3C
ENDCHAR
STARTCHAR 00F7
ENCODING 247
SWIDTH 589 0
DWIDTH 9 0
BBX 8 7 1 1
BITMAP
18
18
00
FF
00
18
18
ENDCHAR
STARTCHAR 00F8
ENCODING 248
SWIDTH 589 0
DWIDTH 9 0
BBX 8 7 1 0
BITMAP
3D
42
8D
99
A1
42
BC
ENDCHAR
STARTCHAR 00F9
ENCODING 249
SWIDTH 589 0
DWIDTH 9 0
BBX 8 11 1 0
BITMAP
40
30
08
00
CE
42
42
42
42
46
3B
ENDCHAR
STARTCHAR 00FA
ENCODING 250
SWIDTH 589 0
DWIDTH 9 0
BBX 8 11 1 0
BITMAP
04
18
20
00
CE
42
42
42
42
46
3B
ENDCHAR
STARTCHAR 00FB
ENCODING 251
SWIDTH 589 0
DWIDTH 9 0
BBX 8 10 1 0
BITMAP
10
6C
00
CE
42
42
42
42
46
3B
ENDCHAR
STARTCHAR 00FC
ENCODING 252
SWIDTH 589 0
DWIDTH 9 0
BBX 8 10 1 0
BITMAP
66
66
00
CE
42
42
42
42
46
3B
ENDCHAR
STARTCHAR 00FD
ENCODING 253
SWIDTH 589 0
DWIDTH 9 0
BBX 8 14 0 -3
BITMAP
02
0C
10
00
E7
42
26
24
1C
18
18
10
10
F8
ENDCHAR
STARTCHAR 00FE
ENCODING 254
SWIDTH 589 0
DWIDTH 9 0
BBX 8 13 1 -3
BITMAP
C0
40
40
5C
62
41
41
41
62
5C
40
40
F0
ENDCHAR
STARTCHAR 00FF
ENCODING 255
SWIDTH 589 0
DWIDTH 9 0
BBX 8 13 0 -3
BITMAP
33
33
00
E7
42
26
24
1C
18
18
10
10
F8
ENDCHAR
ENDFONT
