STARTFONT 2.1
COMMENT
COMMENT Converted from OpenType font "courier_10_pitch.ttf" by "otf2bdf 3.0".
COMMENT
FONT -FreeType-Courier10 BT-Medium-R-Normal--11-80-100-100-P-55-ISO10646-1
SIZE 8 100 100
FONTBOUNDINGBOX 7 13 0 -3
STARTPROPERTIES 19
FOUNDRY "FreeType"
FAMILY_NAME "Courier10 BT"
WEIGHT_NAME "Medium"
SLANT "R"
SETWIDTH_NAME "Normal"
ADD_STYLE_NAME ""
PIXEL_SIZE 11
POINT_SIZE 80
RESOLUTION_X 100
RESOLUTION_Y 100
SPACING "P"
AVERAGE_WIDTH 55
CHARSET_REGISTRY "ISO10646"
CHARSET_ENCODING "1"
FONT_ASCENT 9
FONT_DESCENT 3
COPYRIGHT "Copyright 1990-1993 Bitstream Inc.  All rights reserved."
_OTF_FONTFILE "courier_10_pitch.ttf"
_OTF_PSNAME "Courier10PitchBT-Roman"
ENDPROPERTIES
CHARS 191
STARTCHAR 0020
ENCODING 32
SWIDTH 630 0
DWIDTH 7 0
BBX 0 0 0 0
BITMAP
ENDCHAR
STARTCHAR 0021
ENCODING 33
SWIDTH 630 0
DWIDTH 7 0
BBX 2 7 2 0
BITMAP
80
80
80
80
00
C0
C0
ENDCHAR
STARTCHAR 0022
ENCODING 34
SWIDTH 630 0
DWIDTH 7 0
BBX 3 3 2 4
BITMAP
A0
A0
A0
ENDCHAR
STARTCHAR 0023
ENCODING 35
SWIDTH 630 0
DWIDTH 7 0
BBX 5 9 1 -1
BITMAP
50
50
50
F8
50
F8
50
50
50
ENDCHAR
STARTCHAR 0024
ENCODING 36
SWIDTH 630 0
DWIDTH 7 0
BBX 4 9 1 -1
BITMAP
20
70
90
80
60
10
90
E0
40
ENDCHAR
STARTCHAR 0025
ENCODING 37
SWIDTH 630 0
DWIDTH 7 0
BBX 4 7 1 0
BITMAP
E0
A0
F0
60
F0
50
70
ENDCHAR
STARTCHAR 0026
ENCODING 38
SWIDTH 630 0
DWIDTH 7 0
BBX 5 7 1 0
BITMAP
70
40
40
68
98
90
68
ENDCHAR
STARTCHAR 0027
ENCODING 39
SWIDTH 630 0
DWIDTH 7 0
BBX 1 3 3 4
BITMAP
80
80
80
ENDCHAR
STARTCHAR 0028
ENCODING 40
SWIDTH 630 0
DWIDTH 7 0
BBX 2 8 2 -1
BITMAP
40
80
80
80
80
80
80
40
ENDCHAR
STARTCHAR 0029
ENCODING 41
SWIDTH 630 0
DWIDTH 7 0
BBX 2 8 2 -1
BITMAP
80
80
40
40
40
40
80
80
ENDCHAR
STARTCHAR 002A
ENCODING 42
SWIDTH 630 0
DWIDTH 7 0
BBX 5 4 1 3
BITMAP
20
F8
50
50
ENDCHAR
STARTCHAR 002B
ENCODING 43
SWIDTH 630 0
DWIDTH 7 0
BBX 5 5 1 1
BITMAP
20
20
F8
20
20
ENDCHAR
STARTCHAR 002C
ENCODING 44
SWIDTH 630 0
DWIDTH 7 0
BBX 2 3 2 -1
BITMAP
40
80
80
ENDCHAR
STARTCHAR 002D
ENCODING 45
SWIDTH 630 0
DWIDTH 7 0
BBX 5 1 1 2
BITMAP
F8
ENDCHAR
STARTCHAR 002E
ENCODING 46
SWIDTH 630 0
DWIDTH 7 0
BBX 2 2 2 0
BITMAP
C0
C0
ENDCHAR
STARTCHAR 002F
ENCODING 47
SWIDTH 630 0
DWIDTH 7 0
BBX 4 8 1 0
BITMAP
10
10
20
20
40
40
80
80
ENDCHAR
STARTCHAR 0030
ENCODING 48
SWIDTH 630 0
DWIDTH 7 0
BBX 4 7 1 0
BITMAP
60
90
90
90
90
90
60
ENDCHAR
STARTCHAR 0031
ENCODING 49
SWIDTH 630 0
DWIDTH 7 0
BBX 5 7 1 0
BITMAP
E0
20
20
20
20
20
F8
ENDCHAR
STARTCHAR 0032
ENCODING 50
SWIDTH 630 0
DWIDTH 7 0
BBX 4 7 1 0
BITMAP
60
90
10
20
40
80
F0
ENDCHAR
STARTCHAR 0033
ENCODING 51
SWIDTH 630 0
DWIDTH 7 0
BBX 5 7 1 0
BITMAP
70
88
08
30
08
08
F0
ENDCHAR
STARTCHAR 0034
ENCODING 52
SWIDTH 630 0
DWIDTH 7 0
BBX 5 7 1 0
BITMAP
30
30
50
90
F8
10
38
ENDCHAR
STARTCHAR 0035
ENCODING 53
SWIDTH 630 0
DWIDTH 7 0
BBX 5 7 0 0
BITMAP
78
40
70
08
08
08
F0
ENDCHAR
STARTCHAR 0036
ENCODING 54
SWIDTH 630 0
DWIDTH 7 0
BBX 4 7 1 0
BITMAP
70
40
80
E0
90
90
60
ENDCHAR
STARTCHAR 0037
ENCODING 55
SWIDTH 630 0
DWIDTH 7 0
BBX 4 7 1 0
BITMAP
F0
10
20
20
20
20
40
ENDCHAR
STARTCHAR 0038
ENCODING 56
SWIDTH 630 0
DWIDTH 7 0
BBX 4 7 1 0
BITMAP
60
90
90
60
90
90
60
ENDCHAR
STARTCHAR 0039
ENCODING 57
SWIDTH 630 0
DWIDTH 7 0
BBX 4 7 1 0
BITMAP
60
90
90
70
10
20
E0
ENDCHAR
STARTCHAR 003A
ENCODING 58
SWIDTH 630 0
DWIDTH 7 0
BBX 2 5 2 0
BITMAP
C0
C0
00
C0
C0
ENDCHAR
STARTCHAR 003B
ENCODING 59
SWIDTH 630 0
DWIDTH 7 0
BBX 2 6 2 -1
BITMAP
C0
C0
00
C0
80
80
ENDCHAR
STARTCHAR 003C
ENCODING 60
SWIDTH 630 0
DWIDTH 7 0
BBX 6 5 0 1
BITMAP
0C
30
C0
70
0C
ENDCHAR
STARTCHAR 003D
ENCODING 61
SWIDTH 630 0
DWIDTH 7 0
BBX 6 3 1 2
BITMAP
FC
00
FC
ENDCHAR
STARTCHAR 003E
ENCODING 62
SWIDTH 630 0
DWIDTH 7 0
BBX 6 5 1 1
BITMAP
C0
30
0C
38
C0
ENDCHAR
STARTCHAR 003F
ENCODING 63
SWIDTH 630 0
DWIDTH 7 0
BBX 4 7 1 0
BITMAP
E0
90
10
60
00
60
60
ENDCHAR
STARTCHAR 0040
ENCODING 64
SWIDTH 630 0
DWIDTH 7 0
BBX 4 8 1 -1
BITMAP
60
90
90
F0
D0
F0
C0
70
ENDCHAR
STARTCHAR 0041
ENCODING 65
SWIDTH 630 0
DWIDTH 7 0
BBX 7 7 0 0
BITMAP
70
28
28
48
7C
44
EE
ENDCHAR
STARTCHAR 0042
ENCODING 66
SWIDTH 630 0
DWIDTH 7 0
BBX 6 7 0 0
BITMAP
F8
44
44
78
44
44
F8
ENDCHAR
STARTCHAR 0043
ENCODING 67
SWIDTH 630 0
DWIDTH 7 0
BBX 5 7 0 0
BITMAP
78
C8
88
80
80
C8
70
ENDCHAR
STARTCHAR 0044
ENCODING 68
SWIDTH 630 0
DWIDTH 7 0
BBX 6 7 0 0
BITMAP
F8
4C
44
44
44
4C
F8
ENDCHAR
STARTCHAR 0045
ENCODING 69
SWIDTH 630 0
DWIDTH 7 0
BBX 6 7 0 0
BITMAP
FC
44
50
70
54
44
FC
ENDCHAR
STARTCHAR 0046
ENCODING 70
SWIDTH 630 0
DWIDTH 7 0
BBX 6 7 1 0
BITMAP
FC
44
50
70
50
40
F0
ENDCHAR
STARTCHAR 0047
ENCODING 71
SWIDTH 630 0
DWIDTH 7 0
BBX 6 7 0 0
BITMAP
3C
44
80
80
9C
44
3C
ENDCHAR
STARTCHAR 0048
ENCODING 72
SWIDTH 630 0
DWIDTH 7 0
BBX 6 7 0 0
BITMAP
FC
48
48
78
48
48
FC
ENDCHAR
STARTCHAR 0049
ENCODING 73
SWIDTH 630 0
DWIDTH 7 0
BBX 5 7 1 0
BITMAP
F8
20
20
20
20
20
F8
ENDCHAR
STARTCHAR 004A
ENCODING 74
SWIDTH 630 0
DWIDTH 7 0
BBX 5 7 0 0
BITMAP
78
10
10
10
90
90
E0
ENDCHAR
STARTCHAR 004B
ENCODING 75
SWIDTH 630 0
DWIDTH 7 0
BBX 6 7 0 0
BITMAP
EC
48
50
70
48
48
E4
ENDCHAR
STARTCHAR 004C
ENCODING 76
SWIDTH 630 0
DWIDTH 7 0
BBX 6 7 1 0
BITMAP
F0
40
40
40
44
44
FC
ENDCHAR
STARTCHAR 004D
ENCODING 77
SWIDTH 630 0
DWIDTH 7 0
BBX 7 7 0 0
BITMAP
EE
6C
6C
74
54
44
EE
ENDCHAR
STARTCHAR 004E
ENCODING 78
SWIDTH 630 0
DWIDTH 7 0
BBX 7 7 0 0
BITMAP
CE
64
64
54
4C
4C
E4
ENDCHAR
STARTCHAR 004F
ENCODING 79
SWIDTH 630 0
DWIDTH 7 0
BBX 6 7 0 0
BITMAP
78
CC
84
84
84
CC
78
ENDCHAR
STARTCHAR 0050
ENCODING 80
SWIDTH 630 0
DWIDTH 7 0
BBX 5 7 1 0
BITMAP
F0
48
48
70
40
40
E0
ENDCHAR
STARTCHAR 0051
ENCODING 81
SWIDTH 630 0
DWIDTH 7 0
BBX 6 9 0 -2
BITMAP
78
48
84
84
84
CC
78
40
7C
ENDCHAR
STARTCHAR 0052
ENCODING 82
SWIDTH 630 0
DWIDTH 7 0
BBX 6 7 0 0
BITMAP
F8
48
48
78
50
48
EC
ENDCHAR
STARTCHAR 0053
ENCODING 83
SWIDTH 630 0
DWIDTH 7 0
BBX 5 7 1 0
BITMAP
78
88
80
70
88
88
F0
ENDCHAR
STARTCHAR 0054
ENCODING 84
SWIDTH 630 0
DWIDTH 7 0
BBX 5 7 1 0
BITMAP
F8
A8
A8
20
20
20
70
ENDCHAR
STARTCHAR 0055
ENCODING 85
SWIDTH 630 0
DWIDTH 7 0
BBX 7 7 0 0
BITMAP
EE
44
44
44
44
44
38
ENDCHAR
STARTCHAR 0056
ENCODING 86
SWIDTH 630 0
DWIDTH 7 0
BBX 7 7 0 0
BITMAP
EE
44
44
28
28
28
10
ENDCHAR
STARTCHAR 0057
ENCODING 87
SWIDTH 630 0
DWIDTH 7 0
BBX 7 7 0 0
BITMAP
EE
84
54
74
6C
6C
44
ENDCHAR
STARTCHAR 0058
ENCODING 88
SWIDTH 630 0
DWIDTH 7 0
BBX 6 7 0 0
BITMAP
CC
48
30
30
30
48
CC
ENDCHAR
STARTCHAR 0059
ENCODING 89
SWIDTH 630 0
DWIDTH 7 0
BBX 5 7 1 0
BITMAP
D8
50
50
20
20
20
70
ENDCHAR
STARTCHAR 005A
ENCODING 90
SWIDTH 630 0
DWIDTH 7 0
BBX 4 7 1 0
BITMAP
F0
90
20
40
40
90
F0
ENDCHAR
STARTCHAR 005B
ENCODING 91
SWIDTH 630 0
DWIDTH 7 0
BBX 2 8 2 -1
BITMAP
C0
80
80
80
80
80
80
C0
ENDCHAR
STARTCHAR 005C
ENCODING 92
SWIDTH 630 0
DWIDTH 7 0
BBX 4 8 1 0
BITMAP
80
80
40
40
40
20
20
10
ENDCHAR
STARTCHAR 005D
ENCODING 93
SWIDTH 630 0
DWIDTH 7 0
BBX 2 8 2 -1
BITMAP
C0
40
40
40
40
40
40
C0
ENDCHAR
STARTCHAR 005E
ENCODING 94
SWIDTH 630 0
DWIDTH 7 0
BBX 4 3 1 5
BITMAP
60
60
90
ENDCHAR
STARTCHAR 005F
ENCODING 95
SWIDTH 630 0
DWIDTH 7 0
BBX 7 1 0 -3
BITMAP
FE
ENDCHAR
STARTCHAR 0060
ENCODING 96
SWIDTH 630 0
DWIDTH 7 0
BBX 3 2 1 6
BITMAP
80
60
ENDCHAR
STARTCHAR 0061
ENCODING 97
SWIDTH 630 0
DWIDTH 7 0
BBX 6 5 1 0
BITMAP
70
08
78
88
FC
ENDCHAR
STARTCHAR 0062
ENCODING 98
SWIDTH 630 0
DWIDTH 7 0
BBX 6 7 0 0
BITMAP
C0
40
78
44
44
44
F8
ENDCHAR
STARTCHAR 0063
ENCODING 99
SWIDTH 630 0
DWIDTH 7 0
BBX 5 5 1 0
BITMAP
78
88
80
88
70
ENDCHAR
STARTCHAR 0064
ENCODING 100
SWIDTH 630 0
DWIDTH 7 0
BBX 6 7 1 0
BITMAP
18
08
78
88
88
88
7C
ENDCHAR
STARTCHAR 0065
ENCODING 101
SWIDTH 630 0
DWIDTH 7 0
BBX 6 5 1 0
BITMAP
78
84
FC
80
7C
ENDCHAR
STARTCHAR 0066
ENCODING 102
SWIDTH 630 0
DWIDTH 7 0
BBX 5 7 1 0
BITMAP
78
40
F0
40
40
40
F0
ENDCHAR
STARTCHAR 0067
ENCODING 103
SWIDTH 630 0
DWIDTH 7 0
BBX 6 7 1 -2
BITMAP
7C
88
88
88
78
08
70
ENDCHAR
STARTCHAR 0068
ENCODING 104
SWIDTH 630 0
DWIDTH 7 0
BBX 6 7 0 0
BITMAP
C0
40
78
48
48
48
EC
ENDCHAR
STARTCHAR 0069
ENCODING 105
SWIDTH 630 0
DWIDTH 7 0
BBX 5 7 1 0
BITMAP
20
00
E0
20
20
20
F8
ENDCHAR
STARTCHAR 006A
ENCODING 106
SWIDTH 630 0
DWIDTH 7 0
BBX 4 9 1 -2
BITMAP
10
00
F0
10
10
10
10
10
E0
ENDCHAR
STARTCHAR 006B
ENCODING 107
SWIDTH 630 0
DWIDTH 7 0
BBX 6 7 1 0
BITMAP
C0
40
5C
50
60
58
CC
ENDCHAR
STARTCHAR 006C
ENCODING 108
SWIDTH 630 0
DWIDTH 7 0
BBX 5 7 1 0
BITMAP
E0
20
20
20
20
20
F8
ENDCHAR
STARTCHAR 006D
ENCODING 109
SWIDTH 630 0
DWIDTH 7 0
BBX 7 5 0 0
BITMAP
FC
54
54
54
D6
ENDCHAR
STARTCHAR 006E
ENCODING 110
SWIDTH 630 0
DWIDTH 7 0
BBX 6 5 0 0
BITMAP
F8
48
48
48
EC
ENDCHAR
STARTCHAR 006F
ENCODING 111
SWIDTH 630 0
DWIDTH 7 0
BBX 6 5 1 0
BITMAP
78
84
84
84
78
ENDCHAR
STARTCHAR 0070
ENCODING 112
SWIDTH 630 0
DWIDTH 7 0
BBX 6 7 0 -2
BITMAP
F8
44
44
44
78
40
F0
ENDCHAR
STARTCHAR 0071
ENCODING 113
SWIDTH 630 0
DWIDTH 7 0
BBX 6 7 1 -2
BITMAP
7C
88
88
88
78
08
3C
ENDCHAR
STARTCHAR 0072
ENCODING 114
SWIDTH 630 0
DWIDTH 7 0
BBX 5 5 1 0
BITMAP
D8
60
40
40
F0
ENDCHAR
STARTCHAR 0073
ENCODING 115
SWIDTH 630 0
DWIDTH 7 0
BBX 5 5 1 0
BITMAP
78
80
F8
08
F0
ENDCHAR
STARTCHAR 0074
ENCODING 116
SWIDTH 630 0
DWIDTH 7 0
BBX 5 7 1 0
BITMAP
40
40
F8
40
40
48
78
ENDCHAR
STARTCHAR 0075
ENCODING 117
SWIDTH 630 0
DWIDTH 7 0
BBX 6 5 0 0
BITMAP
D8
48
48
48
7C
ENDCHAR
STARTCHAR 0076
ENCODING 118
SWIDTH 630 0
DWIDTH 7 0
BBX 6 5 0 0
BITMAP
EC
48
28
30
10
ENDCHAR
STARTCHAR 0077
ENCODING 119
SWIDTH 630 0
DWIDTH 7 0
BBX 7 5 0 0
BITMAP
EE
54
74
78
28
ENDCHAR
STARTCHAR 0078
ENCODING 120
SWIDTH 630 0
DWIDTH 7 0
BBX 6 5 0 0
BITMAP
FC
48
30
48
EC
ENDCHAR
STARTCHAR 0079
ENCODING 121
SWIDTH 630 0
DWIDTH 7 0
BBX 6 7 0 -2
BITMAP
CC
48
48
30
20
20
F0
ENDCHAR
STARTCHAR 007A
ENCODING 122
SWIDTH 630 0
DWIDTH 7 0
BBX 4 5 1 0
BITMAP
F0
A0
40
D0
F0
ENDCHAR
STARTCHAR 007B
ENCODING 123
SWIDTH 630 0
DWIDTH 7 0
BBX 4 8 2 -1
BITMAP
30
40
40
40
80
40
40
70
ENDCHAR
STARTCHAR 007C
ENCODING 124
SWIDTH 630 0
DWIDTH 7 0
BBX 1 12 3 -3
BITMAP
80
80
80
80
80
80
80
80
80
80
80
80
ENDCHAR
STARTCHAR 007D
ENCODING 125
SWIDTH 630 0
DWIDTH 7 0
BBX 4 8 2 -1
BITMAP
C0
20
20
20
10
20
20
E0
ENDCHAR
STARTCHAR 007E
ENCODING 126
SWIDTH 630 0
DWIDTH 7 0
BBX 5 3 1 2
BITMAP
08
F8
80
ENDCHAR
STARTCHAR 00A0
ENCODING 160
SWIDTH 630 0
DWIDTH 7 0
BBX 0 0 0 0
BITMAP
ENDCHAR
STARTCHAR 00A1
ENCODING 161
SWIDTH 630 0
DWIDTH 7 0
BBX 2 7 2 0
BITMAP
C0
C0
00
80
80
80
80
ENDCHAR
STARTCHAR 00A2
ENCODING 162
SWIDTH 630 0
DWIDTH 7 0
BBX 4 8 1 -1
BITMAP
20
70
90
80
90
70
20
20
ENDCHAR
STARTCHAR 00A3
ENCODING 163
SWIDTH 630 0
DWIDTH 7 0
BBX 4 7 1 0
BITMAP
70
50
40
70
20
20
F0
ENDCHAR
STARTCHAR 00A4
ENCODING 164
SWIDTH 630 0
DWIDTH 7 0
BBX 6 6 0 2
BITMAP
84
78
48
48
78
84
ENDCHAR
STARTCHAR 00A5
ENCODING 165
SWIDTH 630 0
DWIDTH 7 0
BBX 6 7 1 0
BITMAP
DC
50
DC
50
FC
20
70
ENDCHAR
STARTCHAR 00A6
ENCODING 166
SWIDTH 630 0
DWIDTH 7 0
BBX 1 10 3 -2
BITMAP
80
80
80
80
00
00
80
80
80
80
ENDCHAR
STARTCHAR 00A7
ENCODING 167
SWIDTH 630 0
DWIDTH 7 0
BBX 5 8 1 -1
BITMAP
70
50
C0
A0
58
28
90
70
ENDCHAR
STARTCHAR 00A8
ENCODING 168
SWIDTH 630 0
DWIDTH 7 0
BBX 3 1 2 6
BITMAP
A0
ENDCHAR
STARTCHAR 00A9
ENCODING 169
SWIDTH 630 0
DWIDTH 7 0
BBX 6 6 0 1
BITMAP
78
FC
D4
C4
FC
78
ENDCHAR
STARTCHAR 00AA
ENCODING 170
SWIDTH 630 0
DWIDTH 7 0
BBX 5 6 1 1
BITMAP
70
F0
90
F8
00
F8
ENDCHAR
STARTCHAR 00AB
ENCODING 171
SWIDTH 630 0
DWIDTH 7 0
BBX 4 4 1 1
BITMAP
50
A0
A0
50
ENDCHAR
STARTCHAR 00AC
ENCODING 172
SWIDTH 630 0
DWIDTH 7 0
BBX 5 3 1 2
BITMAP
F8
08
08
ENDCHAR
STARTCHAR 00AD
ENCODING 173
SWIDTH 630 0
DWIDTH 7 0
BBX 5 1 1 2
BITMAP
F8
ENDCHAR
STARTCHAR 00AE
ENCODING 174
SWIDTH 630 0
DWIDTH 7 0
BBX 6 6 0 1
BITMAP
78
FC
B4
B4
FC
78
ENDCHAR
STARTCHAR 00AF
ENCODING 175
SWIDTH 630 0
DWIDTH 7 0
BBX 4 1 1 6
BITMAP
F0
ENDCHAR
STARTCHAR 00B0
ENCODING 176
SWIDTH 630 0
DWIDTH 7 0
BBX 3 3 2 4
BITMAP
E0
A0
E0
ENDCHAR
STARTCHAR 00B1
ENCODING 177
SWIDTH 630 0
DWIDTH 7 0
BBX 5 7 1 1
BITMAP
20
20
F8
20
20
00
F8
ENDCHAR
STARTCHAR 00B2
ENCODING 178
SWIDTH 630 0
DWIDTH 7 0
BBX 3 4 2 3
BITMAP
E0
20
40
E0
ENDCHAR
STARTCHAR 00B3
ENCODING 179
SWIDTH 630 0
DWIDTH 7 0
BBX 4 4 2 3
BITMAP
F0
20
10
F0
ENDCHAR
STARTCHAR 00B4
ENCODING 180
SWIDTH 630 0
DWIDTH 7 0
BBX 3 2 2 6
BITMAP
20
C0
ENDCHAR
STARTCHAR 00B5
ENCODING 181
SWIDTH 630 0
DWIDTH 7 0
BBX 6 7 0 -2
BITMAP
44
44
48
48
FC
80
80
ENDCHAR
STARTCHAR 00B6
ENCODING 182
SWIDTH 630 0
DWIDTH 7 0
BBX 6 8 1 -1
BITMAP
7C
E8
E8
68
28
28
28
EC
ENDCHAR
STARTCHAR 00B7
ENCODING 183
SWIDTH 630 0
DWIDTH 7 0
BBX 2 2 2 2
BITMAP
C0
C0
ENDCHAR
STARTCHAR 00B8
ENCODING 184
SWIDTH 630 0
DWIDTH 7 0
BBX 3 2 2 -2
BITMAP
60
E0
ENDCHAR
STARTCHAR 00B9
ENCODING 185
SWIDTH 630 0
DWIDTH 7 0
BBX 3 4 2 3
BITMAP
C0
40
40
E0
ENDCHAR
STARTCHAR 00BA
ENCODING 186
SWIDTH 630 0
DWIDTH 7 0
BBX 5 6 1 1
BITMAP
70
88
88
70
00
F8
ENDCHAR
STARTCHAR 00BB
ENCODING 187
SWIDTH 630 0
DWIDTH 7 0
BBX 4 4 1 1
BITMAP
A0
50
50
A0
ENDCHAR
STARTCHAR 00BC
ENCODING 188
SWIDTH 630 0
DWIDTH 7 0
BBX 5 8 1 -1
BITMAP
C0
40
40
F8
48
98
28
38
ENDCHAR
STARTCHAR 00BD
ENCODING 189
SWIDTH 630 0
DWIDTH 7 0
BBX 5 8 1 -1
BITMAP
C0
40
40
F8
78
88
10
38
ENDCHAR
STARTCHAR 00BE
ENCODING 190
SWIDTH 630 0
DWIDTH 7 0
BBX 5 8 1 -1
BITMAP
E0
20
40
F8
D8
28
38
08
ENDCHAR
STARTCHAR 00BF
ENCODING 191
SWIDTH 630 0
DWIDTH 7 0
BBX 4 7 1 0
BITMAP
60
60
00
20
C0
90
70
ENDCHAR
STARTCHAR 00C0
ENCODING 192
SWIDTH 630 0
DWIDTH 7 0
BBX 7 9 0 0
BITMAP
40
30
70
28
28
48
7C
44
EE
ENDCHAR
STARTCHAR 00C1
ENCODING 193
SWIDTH 630 0
DWIDTH 7 0
BBX 7 9 0 0
BITMAP
08
30
70
28
28
48
7C
44
EE
ENDCHAR
STARTCHAR 00C2
ENCODING 194
SWIDTH 630 0
DWIDTH 7 0
BBX 7 9 0 0
BITMAP
30
48
70
28
28
48
7C
44
EE
ENDCHAR
STARTCHAR 00C3
ENCODING 195
SWIDTH 630 0
DWIDTH 7 0
BBX 7 8 0 0
BITMAP
78
70
28
28
48
7C
44
EE
ENDCHAR
STARTCHAR 00C4
ENCODING 196
SWIDTH 630 0
DWIDTH 7 0
BBX 7 8 0 0
BITMAP
28
70
28
28
48
7C
44
EE
ENDCHAR
STARTCHAR 00C5
ENCODING 197
SWIDTH 630 0
DWIDTH 7 0
BBX 7 10 0 0
BITMAP
38
28
38
70
28
28
28
7C
44
EE
ENDCHAR
STARTCHAR 00C6
ENCODING 198
SWIDTH 630 0
DWIDTH 7 0
BBX 6 7 0 0
BITMAP
7C
34
50
58
70
54
FC
ENDCHAR
STARTCHAR 00C7
ENCODING 199
SWIDTH 630 0
DWIDTH 7 0
BBX 5 9 0 -2
BITMAP
78
C8
88
80
80
C8
70
08
38
ENDCHAR
STARTCHAR 00C8
ENCODING 200
SWIDTH 630 0
DWIDTH 7 0
BBX 6 9 0 0
BITMAP
40
30
FC
44
50
70
54
44
FC
ENDCHAR
STARTCHAR 00C9
ENCODING 201
SWIDTH 630 0
DWIDTH 7 0
BBX 6 9 0 0
BITMAP
08
30
FC
44
50
70
54
44
FC
ENDCHAR
STARTCHAR 00CA
ENCODING 202
SWIDTH 630 0
DWIDTH 7 0
BBX 6 9 0 0
BITMAP
30
48
FC
44
50
70
54
44
FC
ENDCHAR
STARTCHAR 00CB
ENCODING 203
SWIDTH 630 0
DWIDTH 7 0
BBX 6 8 0 0
BITMAP
28
FC
44
50
70
54
44
FC
ENDCHAR
STARTCHAR 00CC
ENCODING 204
SWIDTH 630 0
DWIDTH 7 0
BBX 5 9 1 0
BITMAP
80
60
F8
20
20
20
20
20
F8
ENDCHAR
STARTCHAR 00CD
ENCODING 205
SWIDTH 630 0
DWIDTH 7 0
BBX 5 9 1 0
BITMAP
10
60
F8
20
20
20
20
20
F8
ENDCHAR
STARTCHAR 00CE
ENCODING 206
SWIDTH 630 0
DWIDTH 7 0
BBX 5 9 1 0
BITMAP
60
90
F8
20
20
20
20
20
F8
ENDCHAR
STARTCHAR 00CF
ENCODING 207
SWIDTH 630 0
DWIDTH 7 0
BBX 5 8 1 0
BITMAP
50
F8
20
20
20
20
20
F8
ENDCHAR
STARTCHAR 00D0
ENCODING 208
SWIDTH 630 0
DWIDTH 7 0
BBX 6 7 0 0
BITMAP
F8
4C
44
F4
44
4C
F8
ENDCHAR
STARTCHAR 00D1
ENCODING 209
SWIDTH 630 0
DWIDTH 7 0
BBX 7 8 0 0
BITMAP
78
CE
64
64
54
4C
4C
E4
ENDCHAR
STARTCHAR 00D2
ENCODING 210
SWIDTH 630 0
DWIDTH 7 0
BBX 6 9 0 0
BITMAP
40
30
78
CC
84
84
84
CC
78
ENDCHAR
STARTCHAR 00D3
ENCODING 211
SWIDTH 630 0
DWIDTH 7 0
BBX 6 9 0 0
BITMAP
08
30
78
CC
84
84
84
CC
78
ENDCHAR
STARTCHAR 00D4
ENCODING 212
SWIDTH 630 0
DWIDTH 7 0
BBX 6 9 0 0
BITMAP
30
48
78
CC
84
84
84
CC
78
ENDCHAR
STARTCHAR 00D5
ENCODING 213
SWIDTH 630 0
DWIDTH 7 0
BBX 6 8 0 0
BITMAP
78
78
CC
84
84
84
CC
78
ENDCHAR
STARTCHAR 00D6
ENCODING 214
SWIDTH 630 0
DWIDTH 7 0
BBX 6 8 0 0
BITMAP
28
78
CC
84
84
84
CC
78
ENDCHAR
STARTCHAR 00D7
ENCODING 215
SWIDTH 630 0
DWIDTH 7 0
BBX 4 4 1 1
BITMAP
90
60
60
90
ENDCHAR
STARTCHAR 00D8
ENCODING 216
SWIDTH 630 0
DWIDTH 7 0
BBX 6 7 0 0
BITMAP
78
C8
94
A4
A4
4C
F8
ENDCHAR
STARTCHAR 00D9
ENCODING 217
SWIDTH 630 0
DWIDTH 7 0
BBX 7 9 0 0
BITMAP
40
30
EE
44
44
44
44
44
38
ENDCHAR
STARTCHAR 00DA
ENCODING 218
SWIDTH 630 0
DWIDTH 7 0
BBX 7 9 0 0
BITMAP
08
30
EE
44
44
44
44
44
38
ENDCHAR
STARTCHAR 00DB
ENCODING 219
SWIDTH 630 0
DWIDTH 7 0
BBX 7 9 0 0
BITMAP
30
48
EE
44
44
44
44
44
38
ENDCHAR
STARTCHAR 00DC
ENCODING 220
SWIDTH 630 0
DWIDTH 7 0
BBX 7 8 0 0
BITMAP
28
EE
44
44
44
44
44
38
ENDCHAR
STARTCHAR 00DD
ENCODING 221
SWIDTH 630 0
DWIDTH 7 0
BBX 5 9 1 0
BITMAP
10
60
D8
50
50
20
20
20
70
ENDCHAR
STARTCHAR 00DE
ENCODING 222
SWIDTH 630 0
DWIDTH 7 0
BBX 5 7 1 0
BITMAP
F0
40
70
48
48
70
F0
ENDCHAR
STARTCHAR 00DF
ENCODING 223
SWIDTH 630 0
DWIDTH 7 0
BBX 6 7 0 0
BITMAP
78
48
58
44
44
44
D8
ENDCHAR
STARTCHAR 00E0
ENCODING 224
SWIDTH 630 0
DWIDTH 7 0
BBX 6 8 1 0
BITMAP
80
60
00
70
08
78
88
FC
ENDCHAR
STARTCHAR 00E1
ENCODING 225
SWIDTH 630 0
DWIDTH 7 0
BBX 6 8 1 0
BITMAP
10
60
00
70
08
78
88
FC
ENDCHAR
STARTCHAR 00E2
ENCODING 226
SWIDTH 630 0
DWIDTH 7 0
BBX 6 8 1 0
BITMAP
60
90
00
70
08
78
88
FC
ENDCHAR
STARTCHAR 00E3
ENCODING 227
SWIDTH 630 0
DWIDTH 7 0
BBX 6 7 1 0
BITMAP
F0
00
70
08
78
88
FC
ENDCHAR
STARTCHAR 00E4
ENCODING 228
SWIDTH 630 0
DWIDTH 7 0
BBX 6 7 1 0
BITMAP
50
00
70
08
78
88
FC
ENDCHAR
STARTCHAR 00E5
ENCODING 229
SWIDTH 630 0
DWIDTH 7 0
BBX 6 8 1 0
BITMAP
70
50
70
70
08
78
88
FC
ENDCHAR
STARTCHAR 00E6
ENCODING 230
SWIDTH 630 0
DWIDTH 7 0
BBX 6 5 0 0
BITMAP
6C
14
FC
90
EC
ENDCHAR
STARTCHAR 00E7
ENCODING 231
SWIDTH 630 0
DWIDTH 7 0
BBX 5 7 1 -2
BITMAP
78
88
80
88
70
10
70
ENDCHAR
STARTCHAR 00E8
ENCODING 232
SWIDTH 630 0
DWIDTH 7 0
BBX 6 8 1 0
BITMAP
80
60
00
78
84
FC
80
7C
ENDCHAR
STARTCHAR 00E9
ENCODING 233
SWIDTH 630 0
DWIDTH 7 0
BBX 6 8 1 0
BITMAP
10
60
00
78
84
FC
80
7C
ENDCHAR
STARTCHAR 00EA
ENCODING 234
SWIDTH 630 0
DWIDTH 7 0
BBX 6 8 1 0
BITMAP
60
90
00
78
84
FC
80
7C
ENDCHAR
STARTCHAR 00EB
ENCODING 235
SWIDTH 630 0
DWIDTH 7 0
BBX 6 7 1 0
BITMAP
50
00
78
84
FC
80
7C
ENDCHAR
STARTCHAR 00EC
ENCODING 236
SWIDTH 630 0
DWIDTH 7 0
BBX 5 8 1 0
BITMAP
80
60
00
E0
20
20
20
F8
ENDCHAR
STARTCHAR 00ED
ENCODING 237
SWIDTH 630 0
DWIDTH 7 0
BBX 5 8 1 0
BITMAP
10
60
00
E0
20
20
20
F8
ENDCHAR
STARTCHAR 00EE
ENCODING 238
SWIDTH 630 0
DWIDTH 7 0
BBX 5 8 1 0
BITMAP
60
90
00
E0
20
20
20
F8
ENDCHAR
STARTCHAR 00EF
ENCODING 239
SWIDTH 630 0
DWIDTH 7 0
BBX 5 7 1 0
BITMAP
50
00
E0
20
20
20
F8
ENDCHAR
STARTCHAR 00F0
ENCODING 240
SWIDTH 630 0
DWIDTH 7 0
BBX 6 7 1 0
BITMAP
78
50
78
84
84
84
78
ENDCHAR
STARTCHAR 00F1
ENCODING 241
SWIDTH 630 0
DWIDTH 7 0
BBX 6 7 0 0
BITMAP
78
00
F8
48
48
48
EC
ENDCHAR
STARTCHAR 00F2
ENCODING 242
SWIDTH 630 0
DWIDTH 7 0
BBX 6 8 1 0
BITMAP
80
60
00
78
84
84
84
78
ENDCHAR
STARTCHAR 00F3
ENCODING 243
SWIDTH 630 0
DWIDTH 7 0
BBX 6 8 1 0
BITMAP
10
60
00
78
84
84
84
78
ENDCHAR
STARTCHAR 00F4
ENCODING 244
SWIDTH 630 0
DWIDTH 7 0
BBX 6 8 1 0
BITMAP
60
90
00
78
84
84
84
78
ENDCHAR
STARTCHAR 00F5
ENCODING 245
SWIDTH 630 0
DWIDTH 7 0
BBX 6 7 1 0
BITMAP
F0
00
78
84
84
84
78
ENDCHAR
STARTCHAR 00F6
ENCODING 246
SWIDTH 630 0
DWIDTH 7 0
BBX 6 7 1 0
BITMAP
50
00
78
84
84
84
78
ENDCHAR
STARTCHAR 00F7
ENCODING 247
SWIDTH 630 0
DWIDTH 7 0
BBX 5 5 1 1
BITMAP
20
00
F8
00
20
ENDCHAR
STARTCHAR 00F8
ENCODING 248
SWIDTH 630 0
DWIDTH 7 0
BBX 6 5 1 0
BITMAP
74
8C
B4
C4
F8
ENDCHAR
STARTCHAR 00F9
ENCODING 249
SWIDTH 630 0
DWIDTH 7 0
BBX 6 8 0 0
BITMAP
40
30
00
D8
48
48
48
7C
ENDCHAR
STARTCHAR 00FA
ENCODING 250
SWIDTH 630 0
DWIDTH 7 0
BBX 6 8 0 0
BITMAP
08
30
00
D8
48
48
48
7C
ENDCHAR
STARTCHAR 00FB
ENCODING 251
SWIDTH 630 0
DWIDTH 7 0
BBX 6 8 0 0
BITMAP
30
48
00
D8
48
48
48
7C
ENDCHAR
STARTCHAR 00FC
ENCODING 252
SWIDTH 630 0
DWIDTH 7 0
BBX 6 7 0 0
BITMAP
28
00
D8
48
48
48
7C
ENDCHAR
STARTCHAR 00FD
ENCODING 253
SWIDTH 630 0
DWIDTH 7 0
BBX 6 10 0 -2
BITMAP
08
30
00
CC
48
48
30
20
20
F0
ENDCHAR
STARTCHAR 00FE
ENCODING 254
SWIDTH 630 0
DWIDTH 7 0
BBX 6 9 0 -2
BITMAP
C0
40
78
44
44
44
78
40
F0
ENDCHAR
STARTCHAR 00FF
ENCODING 255
SWIDTH 630 0
DWIDTH 7 0
BBX 6 9 0 -2
BITMAP
28
00
CC
48
48
30
20
20
F0
ENDCHAR
ENDFONT
