STARTFONT 2.1
COMMENT
COMMENT Converted from OpenType font "courier_10_pitch.ttf" by "otf2bdf 3.0".
COMMENT
FONT -FreeType-Courier10 BT-Medium-R-Normal--18-130-100-100-P-84-ISO10646-1
SIZE 13 100 100
FONTBOUNDINGBOX 12 20 0 -5
STARTPROPERTIES 19
FOUNDRY "FreeType"
FAMILY_NAME "Courier10 BT"
WEIGHT_NAME "Medium"
SLANT "R"
SETWIDTH_NAME "Normal"
ADD_STYLE_NAME ""
PIXEL_SIZE 18
POINT_SIZE 130
RESOLUTION_X 100
RESOLUTION_Y 100
SPACING "P"
AVERAGE_WIDTH 84
CHARSET_REGISTRY "ISO10646"
CHARSET_ENCODING "1"
FONT_ASCENT 15
FONT_DESCENT 5
COPYRIGHT "Copyright 1990-1993 Bitstream Inc.  All rights reserved."
_OTF_FONTFILE "courier_10_pitch.ttf"
_OTF_PSNAME "Courier10PitchBT-Roman"
ENDPROPERTIES
CHARS 191
STARTCHAR 0020
ENCODING 32
SWIDTH 609 0
DWIDTH 11 0
BBX 0 0 0 0
BITMAP
ENDCHAR
STARTCHAR 0021
ENCODING 33
SWIDTH 609 0
DWIDTH 11 0
BBX 3 10 4 0
BITMAP
40
40
40
40
40
40
00
E0
E0
E0
ENDCHAR
STARTCHAR 0022
ENCODING 34
SWIDTH 609 0
DWIDTH 11 0
BBX 3 4 4 6
BITMAP
A0
A0
A0
A0
ENDCHAR
STARTCHAR 0023
ENCODING 35
SWIDTH 609 0
DWIDTH 11 0
BBX 7 13 2 -1
BITMAP
24
24
24
24
FE
6C
6C
FE
48
48
48
48
48
ENDCHAR
STARTCHAR 0024
ENCODING 36
SWIDTH 609 0
DWIDTH 11 0
BBX 7 14 1 -2
BITMAP
10
7E
C2
82
C0
70
3C
06
82
C2
FC
20
20
20
ENDCHAR
STARTCHAR 0025
ENCODING 37
SWIDTH 609 0
DWIDTH 11 0
BBX 7 11 2 0
BITMAP
70
88
88
88
76
38
DC
22
22
22
1C
ENDCHAR
STARTCHAR 0026
ENCODING 38
SWIDTH 609 0
DWIDTH 11 0
BBX 7 10 2 0
BITMAP
38
48
40
60
76
94
9C
8C
CC
7E
ENDCHAR
STARTCHAR 0027
ENCODING 39
SWIDTH 609 0
DWIDTH 11 0
BBX 1 4 4 6
BITMAP
80
80
80
80
ENDCHAR
STARTCHAR 0028
ENCODING 40
SWIDTH 609 0
DWIDTH 11 0
BBX 4 14 4 -4
BITMAP
10
20
60
40
80
80
80
80
80
80
40
60
20
10
ENDCHAR
STARTCHAR 0029
ENCODING 41
SWIDTH 609 0
DWIDTH 11 0
BBX 4 14 4 -4
BITMAP
80
40
60
20
10
10
10
10
10
10
20
60
40
80
ENDCHAR
STARTCHAR 002A
ENCODING 42
SWIDTH 609 0
DWIDTH 11 0
BBX 7 7 2 3
BITMAP
10
10
D6
7C
38
28
6C
ENDCHAR
STARTCHAR 002B
ENCODING 43
SWIDTH 609 0
DWIDTH 11 0
BBX 9 9 1 1
BITMAP
0800
0800
0800
0800
FF80
0800
0800
0800
0800
ENDCHAR
STARTCHAR 002C
ENCODING 44
SWIDTH 609 0
DWIDTH 11 0
BBX 4 5 3 -2
BITMAP
70
60
60
C0
C0
ENDCHAR
STARTCHAR 002D
ENCODING 45
SWIDTH 609 0
DWIDTH 11 0
BBX 8 2 1 3
BITMAP
FF
FF
ENDCHAR
STARTCHAR 002E
ENCODING 46
SWIDTH 609 0
DWIDTH 11 0
BBX 3 3 4 0
BITMAP
E0
E0
E0
ENDCHAR
STARTCHAR 002F
ENCODING 47
SWIDTH 609 0
DWIDTH 11 0
BBX 7 14 2 -1
BITMAP
02
06
04
0C
08
18
10
10
30
20
60
40
C0
80
ENDCHAR
STARTCHAR 0030
ENCODING 48
SWIDTH 609 0
DWIDTH 11 0
BBX 7 11 2 0
BITMAP
38
44
82
82
82
82
82
82
82
44
38
ENDCHAR
STARTCHAR 0031
ENCODING 49
SWIDTH 609 0
DWIDTH 11 0
BBX 7 11 2 0
BITMAP
30
F0
10
10
10
10
10
10
10
10
FE
ENDCHAR
STARTCHAR 0032
ENCODING 50
SWIDTH 609 0
DWIDTH 11 0
BBX 7 11 1 0
BITMAP
78
C4
82
02
06
04
08
10
60
C2
FE
ENDCHAR
STARTCHAR 0033
ENCODING 51
SWIDTH 609 0
DWIDTH 11 0
BBX 7 11 2 0
BITMAP
3C
42
02
06
3C
06
02
02
02
C4
78
ENDCHAR
STARTCHAR 0034
ENCODING 52
SWIDTH 609 0
DWIDTH 11 0
BBX 7 11 2 0
BITMAP
0C
0C
14
34
24
44
C4
FE
04
04
1E
ENDCHAR
STARTCHAR 0035
ENCODING 53
SWIDTH 609 0
DWIDTH 11 0
BBX 7 11 2 0
BITMAP
FC
80
80
F8
C4
02
02
02
02
84
78
ENDCHAR
STARTCHAR 0036
ENCODING 54
SWIDTH 609 0
DWIDTH 11 0
BBX 7 11 2 0
BITMAP
1E
20
40
80
B8
C4
82
82
82
44
3C
ENDCHAR
STARTCHAR 0037
ENCODING 55
SWIDTH 609 0
DWIDTH 11 0
BBX 7 11 2 0
BITMAP
FE
82
04
04
0C
08
08
18
10
10
30
ENDCHAR
STARTCHAR 0038
ENCODING 56
SWIDTH 609 0
DWIDTH 11 0
BBX 7 11 2 0
BITMAP
7C
C6
82
C6
7C
C6
82
82
82
44
38
ENDCHAR
STARTCHAR 0039
ENCODING 57
SWIDTH 609 0
DWIDTH 11 0
BBX 7 11 2 0
BITMAP
78
44
82
82
82
46
3A
02
04
08
F0
ENDCHAR
STARTCHAR 003A
ENCODING 58
SWIDTH 609 0
DWIDTH 11 0
BBX 3 8 4 0
BITMAP
E0
E0
E0
00
00
E0
E0
E0
ENDCHAR
STARTCHAR 003B
ENCODING 59
SWIDTH 609 0
DWIDTH 11 0
BBX 4 10 3 -2
BITMAP
70
70
70
00
00
30
60
60
C0
C0
ENDCHAR
STARTCHAR 003C
ENCODING 60
SWIDTH 609 0
DWIDTH 11 0
BBX 9 9 1 1
BITMAP
0180
0700
1C00
7000
C000
7000
1C00
0700
0180
ENDCHAR
STARTCHAR 003D
ENCODING 61
SWIDTH 609 0
DWIDTH 11 0
BBX 9 4 1 4
BITMAP
FF80
0000
0000
FF80
ENDCHAR
STARTCHAR 003E
ENCODING 62
SWIDTH 609 0
DWIDTH 11 0
BBX 9 9 1 1
BITMAP
C000
7000
1C00
0700
0180
0700
1C00
7000
C000
ENDCHAR
STARTCHAR 003F
ENCODING 63
SWIDTH 609 0
DWIDTH 11 0
BBX 7 10 2 0
BITMAP
FC
C6
82
02
0C
10
00
38
38
38
ENDCHAR
STARTCHAR 0040
ENCODING 64
SWIDTH 609 0
DWIDTH 11 0
BBX 6 13 2 -1
BITMAP
38
4C
44
84
9C
A4
A4
A4
9C
80
40
40
3C
ENDCHAR
STARTCHAR 0041
ENCODING 65
SWIDTH 609 0
DWIDTH 11 0
BBX 11 10 0 0
BITMAP
3E00
0A00
0A00
1100
1100
3F80
2080
2080
60C0
F1E0
ENDCHAR
STARTCHAR 0042
ENCODING 66
SWIDTH 609 0
DWIDTH 11 0
BBX 9 10 1 0
BITMAP
FE00
4100
4100
4100
7F00
4180
4080
4080
4180
FE00
ENDCHAR
STARTCHAR 0043
ENCODING 67
SWIDTH 609 0
DWIDTH 11 0
BBX 9 10 1 0
BITMAP
1F80
6180
4080
8080
8000
8000
8000
4000
6180
1F00
ENDCHAR
STARTCHAR 0044
ENCODING 68
SWIDTH 609 0
DWIDTH 11 0
BBX 9 10 1 0
BITMAP
FE00
4300
4100
4080
4080
4080
4080
4100
4300
FC00
ENDCHAR
STARTCHAR 0045
ENCODING 69
SWIDTH 609 0
DWIDTH 11 0
BBX 8 10 1 0
BITMAP
FF
41
41
48
78
48
41
41
41
FF
ENDCHAR
STARTCHAR 0046
ENCODING 70
SWIDTH 609 0
DWIDTH 11 0
BBX 8 10 1 0
BITMAP
FF
41
41
48
78
48
40
40
40
F8
ENDCHAR
STARTCHAR 0047
ENCODING 71
SWIDTH 609 0
DWIDTH 11 0
BBX 10 10 1 0
BITMAP
1F80
6180
4080
8000
8000
87C0
8080
4080
6080
1F80
ENDCHAR
STARTCHAR 0048
ENCODING 72
SWIDTH 609 0
DWIDTH 11 0
BBX 9 10 1 0
BITMAP
E380
4100
4100
4100
7F00
4100
4100
4100
4100
E380
ENDCHAR
STARTCHAR 0049
ENCODING 73
SWIDTH 609 0
DWIDTH 11 0
BBX 7 10 2 0
BITMAP
FE
10
10
10
10
10
10
10
10
FE
ENDCHAR
STARTCHAR 004A
ENCODING 74
SWIDTH 609 0
DWIDTH 11 0
BBX 9 10 1 0
BITMAP
1F80
0200
0200
0200
0200
8200
8200
8200
C600
7C00
ENDCHAR
STARTCHAR 004B
ENCODING 75
SWIDTH 609 0
DWIDTH 11 0
BBX 9 10 1 0
BITMAP
EF80
4600
4C00
5000
7000
5800
4400
4600
4200
E380
ENDCHAR
STARTCHAR 004C
ENCODING 76
SWIDTH 609 0
DWIDTH 11 0
BBX 9 10 1 0
BITMAP
FC00
2000
2000
2000
2000
2080
2080
2080
2080
FF80
ENDCHAR
STARTCHAR 004D
ENCODING 77
SWIDTH 609 0
DWIDTH 11 0
BBX 10 10 0 0
BITMAP
E1C0
6180
6180
5280
5280
5E80
4C80
4080
4080
E1C0
ENDCHAR
STARTCHAR 004E
ENCODING 78
SWIDTH 609 0
DWIDTH 11 0
BBX 9 10 1 0
BITMAP
E780
6100
7100
5100
4900
4D00
4500
4700
4300
F100
ENDCHAR
STARTCHAR 004F
ENCODING 79
SWIDTH 609 0
DWIDTH 11 0
BBX 10 10 1 0
BITMAP
1E00
6180
4080
8040
8040
8040
8040
4080
6180
1E00
ENDCHAR
STARTCHAR 0050
ENCODING 80
SWIDTH 609 0
DWIDTH 11 0
BBX 8 10 2 0
BITMAP
FC
42
41
41
41
42
7C
40
40
E0
ENDCHAR
STARTCHAR 0051
ENCODING 81
SWIDTH 609 0
DWIDTH 11 0
BBX 10 13 1 -3
BITMAP
1E00
6180
4080
8040
8040
8040
8040
4080
6180
3E00
1000
2E40
7380
ENDCHAR
STARTCHAR 0052
ENCODING 82
SWIDTH 609 0
DWIDTH 11 0
BBX 9 10 1 0
BITMAP
FC00
4300
4100
4100
4300
7E00
4600
4200
4300
E180
ENDCHAR
STARTCHAR 0053
ENCODING 83
SWIDTH 609 0
DWIDTH 11 0
BBX 8 10 2 0
BITMAP
3F
41
81
80
7C
1F
01
81
C3
FC
ENDCHAR
STARTCHAR 0054
ENCODING 84
SWIDTH 609 0
DWIDTH 11 0
BBX 9 10 1 0
BITMAP
FF80
8880
8880
8880
0800
0800
0800
0800
0800
3E00
ENDCHAR
STARTCHAR 0055
ENCODING 85
SWIDTH 609 0
DWIDTH 11 0
BBX 10 10 1 0
BITMAP
E1C0
4080
4080
4080
4080
4080
4080
4080
2100
1E00
ENDCHAR
STARTCHAR 0056
ENCODING 86
SWIDTH 609 0
DWIDTH 11 0
BBX 11 10 0 0
BITMAP
F1E0
60C0
2080
3080
3180
1100
1B00
0A00
0E00
0600
ENDCHAR
STARTCHAR 0057
ENCODING 87
SWIDTH 609 0
DWIDTH 11 0
BBX 11 10 0 0
BITMAP
F1E0
4040
4440
6640
6AC0
2AC0
2B80
3180
3180
3180
ENDCHAR
STARTCHAR 0058
ENCODING 88
SWIDTH 609 0
DWIDTH 11 0
BBX 9 10 1 0
BITMAP
F780
6300
3600
1400
1C00
1C00
3400
2200
6300
F780
ENDCHAR
STARTCHAR 0059
ENCODING 89
SWIDTH 609 0
DWIDTH 11 0
BBX 9 10 1 0
BITMAP
F780
2300
3200
1400
1400
0800
0800
0800
0800
3E00
ENDCHAR
STARTCHAR 005A
ENCODING 90
SWIDTH 609 0
DWIDTH 11 0
BBX 7 10 2 0
BITMAP
FE
86
8C
88
10
30
62
42
82
FE
ENDCHAR
STARTCHAR 005B
ENCODING 91
SWIDTH 609 0
DWIDTH 11 0
BBX 4 14 4 -4
BITMAP
F0
80
80
80
80
80
80
80
80
80
80
80
80
F0
ENDCHAR
STARTCHAR 005C
ENCODING 92
SWIDTH 609 0
DWIDTH 11 0
BBX 7 14 2 -1
BITMAP
80
C0
40
60
20
30
10
10
08
08
0C
04
06
02
ENDCHAR
STARTCHAR 005D
ENCODING 93
SWIDTH 609 0
DWIDTH 11 0
BBX 4 14 4 -4
BITMAP
F0
10
10
10
10
10
10
10
10
10
10
10
10
F0
ENDCHAR
STARTCHAR 005E
ENCODING 94
SWIDTH 609 0
DWIDTH 11 0
BBX 6 4 2 8
BITMAP
30
78
48
84
ENDCHAR
STARTCHAR 005F
ENCODING 95
SWIDTH 609 0
DWIDTH 11 0
BBX 12 1 0 -5
BITMAP
FFF0
ENDCHAR
STARTCHAR 0060
ENCODING 96
SWIDTH 609 0
DWIDTH 11 0
BBX 5 3 2 9
BITMAP
C0
60
18
ENDCHAR
STARTCHAR 0061
ENCODING 97
SWIDTH 609 0
DWIDTH 11 0
BBX 9 8 1 0
BITMAP
7E00
6300
0100
3F00
C100
8100
8300
7D80
ENDCHAR
STARTCHAR 0062
ENCODING 98
SWIDTH 609 0
DWIDTH 11 0
BBX 9 11 1 0
BITMAP
C000
4000
4000
5E00
6100
4080
4080
4080
4080
6100
DE00
ENDCHAR
STARTCHAR 0063
ENCODING 99
SWIDTH 609 0
DWIDTH 11 0
BBX 9 8 1 0
BITMAP
3F80
6180
8180
8080
8000
8000
4180
3E00
ENDCHAR
STARTCHAR 0064
ENCODING 100
SWIDTH 609 0
DWIDTH 11 0
BBX 9 11 1 0
BITMAP
0700
0100
0100
3D00
4300
8100
8100
8100
8100
4300
3D80
ENDCHAR
STARTCHAR 0065
ENCODING 101
SWIDTH 609 0
DWIDTH 11 0
BBX 9 8 1 0
BITMAP
3E00
6100
C180
8080
FF80
8000
4180
3F00
ENDCHAR
STARTCHAR 0066
ENCODING 102
SWIDTH 609 0
DWIDTH 11 0
BBX 8 11 2 0
BITMAP
1F
20
20
FE
20
20
20
20
20
20
FE
ENDCHAR
STARTCHAR 0067
ENCODING 103
SWIDTH 609 0
DWIDTH 11 0
BBX 9 12 1 -4
BITMAP
3D80
4300
8100
8100
8100
8100
4300
3D00
0100
0100
0300
3C00
ENDCHAR
STARTCHAR 0068
ENCODING 104
SWIDTH 609 0
DWIDTH 11 0
BBX 9 11 1 0
BITMAP
C000
4000
4000
5E00
6300
4100
4100
4100
4100
4100
E380
ENDCHAR
STARTCHAR 0069
ENCODING 105
SWIDTH 609 0
DWIDTH 11 0
BBX 8 12 2 0
BITMAP
10
10
00
00
70
10
10
10
10
10
10
FF
ENDCHAR
STARTCHAR 006A
ENCODING 106
SWIDTH 609 0
DWIDTH 11 0
BBX 6 16 2 -4
BITMAP
08
08
00
00
FC
04
04
04
04
04
04
04
04
04
0C
F0
ENDCHAR
STARTCHAR 006B
ENCODING 107
SWIDTH 609 0
DWIDTH 11 0
BBX 9 11 2 0
BITMAP
C000
4000
4000
4F00
4C00
5800
7000
5800
4C00
4600
C780
ENDCHAR
STARTCHAR 006C
ENCODING 108
SWIDTH 609 0
DWIDTH 11 0
BBX 7 11 2 0
BITMAP
F0
10
10
10
10
10
10
10
10
10
FE
ENDCHAR
STARTCHAR 006D
ENCODING 109
SWIDTH 609 0
DWIDTH 11 0
BBX 11 8 0 0
BITMAP
FB80
4640
4440
4440
4440
4440
4440
E660
ENDCHAR
STARTCHAR 006E
ENCODING 110
SWIDTH 609 0
DWIDTH 11 0
BBX 9 8 1 0
BITMAP
DE00
6300
4100
4100
4100
4100
4100
E380
ENDCHAR
STARTCHAR 006F
ENCODING 111
SWIDTH 609 0
DWIDTH 11 0
BBX 9 8 1 0
BITMAP
3E00
4100
8080
8080
8080
8080
4100
3E00
ENDCHAR
STARTCHAR 0070
ENCODING 112
SWIDTH 609 0
DWIDTH 11 0
BBX 9 12 1 -4
BITMAP
DE00
6100
4080
4080
4080
4080
6100
5E00
4000
4000
4000
F800
ENDCHAR
STARTCHAR 0071
ENCODING 113
SWIDTH 609 0
DWIDTH 11 0
BBX 9 12 1 -4
BITMAP
3D80
4300
8100
8100
8100
8100
4300
3D00
0100
0100
0100
0F80
ENDCHAR
STARTCHAR 0072
ENCODING 114
SWIDTH 609 0
DWIDTH 11 0
BBX 9 8 1 0
BITMAP
E780
3900
3000
2000
2000
2000
2000
FE00
ENDCHAR
STARTCHAR 0073
ENCODING 115
SWIDTH 609 0
DWIDTH 11 0
BBX 8 8 2 0
BITMAP
7E
86
82
F8
1F
81
C1
FE
ENDCHAR
STARTCHAR 0074
ENCODING 116
SWIDTH 609 0
DWIDTH 11 0
BBX 9 11 1 0
BITMAP
2000
2000
2000
FF00
2000
2000
2000
2000
2000
2180
1F00
ENDCHAR
STARTCHAR 0075
ENCODING 117
SWIDTH 609 0
DWIDTH 11 0
BBX 9 8 1 0
BITMAP
C700
4100
4100
4100
4100
4100
6300
3D80
ENDCHAR
STARTCHAR 0076
ENCODING 118
SWIDTH 609 0
DWIDTH 11 0
BBX 10 8 0 0
BITMAP
F3C0
6180
2100
3300
1200
1A00
0E00
0C00
ENDCHAR
STARTCHAR 0077
ENCODING 119
SWIDTH 609 0
DWIDTH 11 0
BBX 11 8 0 0
BITMAP
E0E0
4040
4640
4E40
6A40
3B80
3180
3180
ENDCHAR
STARTCHAR 0078
ENCODING 120
SWIDTH 609 0
DWIDTH 11 0
BBX 10 8 1 0
BITMAP
F3C0
3100
1A00
0C00
0E00
1300
2180
F3C0
ENDCHAR
STARTCHAR 0079
ENCODING 121
SWIDTH 609 0
DWIDTH 11 0
BBX 10 12 1 -4
BITMAP
F3C0
6180
2100
3300
1200
1E00
0C00
0C00
0C00
0800
1800
FC00
ENDCHAR
STARTCHAR 007A
ENCODING 122
SWIDTH 609 0
DWIDTH 11 0
BBX 7 8 2 0
BITMAP
FE
86
8C
18
30
62
C2
FE
ENDCHAR
STARTCHAR 007B
ENCODING 123
SWIDTH 609 0
DWIDTH 11 0
BBX 6 14 3 -4
BITMAP
1C
20
20
20
20
20
60
C0
20
20
20
20
20
1C
ENDCHAR
STARTCHAR 007C
ENCODING 124
SWIDTH 609 0
DWIDTH 11 0
BBX 1 19 5 -5
BITMAP
80
80
80
80
80
80
80
80
80
80
80
80
80
80
80
80
80
80
80
ENDCHAR
STARTCHAR 007D
ENCODING 125
SWIDTH 609 0
DWIDTH 11 0
BBX 6 14 3 -4
BITMAP
E0
10
10
10
10
10
18
0C
10
10
10
10
10
E0
ENDCHAR
STARTCHAR 007E
ENCODING 126
SWIDTH 609 0
DWIDTH 11 0
BBX 9 2 1 4
BITMAP
7880
8F00
ENDCHAR
STARTCHAR 00A0
ENCODING 160
SWIDTH 609 0
DWIDTH 11 0
BBX 0 0 0 0
BITMAP
ENDCHAR
STARTCHAR 00A1
ENCODING 161
SWIDTH 609 0
DWIDTH 11 0
BBX 3 10 4 0
BITMAP
E0
E0
E0
00
40
40
40
40
40
40
ENDCHAR
STARTCHAR 00A2
ENCODING 162
SWIDTH 609 0
DWIDTH 11 0
BBX 7 11 2 0
BITMAP
10
10
3E
46
82
80
80
42
3C
10
10
ENDCHAR
STARTCHAR 00A3
ENCODING 163
SWIDTH 609 0
DWIDTH 11 0
BBX 7 11 3 0
BITMAP
7C
84
80
80
80
FC
40
40
40
40
FE
ENDCHAR
STARTCHAR 00A4
ENCODING 164
SWIDTH 609 0
DWIDTH 11 0
BBX 9 9 1 3
BITMAP
8080
5D00
2200
4100
4100
4100
2200
5D00
8080
ENDCHAR
STARTCHAR 00A5
ENCODING 165
SWIDTH 609 0
DWIDTH 11 0
BBX 9 10 1 0
BITMAP
F780
2200
E380
1400
1400
FF80
0800
0800
0800
3E00
ENDCHAR
STARTCHAR 00A6
ENCODING 166
SWIDTH 609 0
DWIDTH 11 0
BBX 1 16 5 -3
BITMAP
80
80
80
80
80
80
80
00
00
80
80
80
80
80
80
80
ENDCHAR
STARTCHAR 00A7
ENCODING 167
SWIDTH 609 0
DWIDTH 11 0
BBX 8 12 1 -2
BITMAP
3E
42
42
F0
9C
C6
73
1D
0F
42
42
7C
ENDCHAR
STARTCHAR 00A8
ENCODING 168
SWIDTH 609 0
DWIDTH 11 0
BBX 6 2 2 9
BITMAP
CC
CC
ENDCHAR
STARTCHAR 00A9
ENCODING 169
SWIDTH 609 0
DWIDTH 11 0
BBX 10 10 0 1
BITMAP
1E00
6180
5E80
B240
A040
A040
B240
5E80
6180
1E00
ENDCHAR
STARTCHAR 00AA
ENCODING 170
SWIDTH 609 0
DWIDTH 11 0
BBX 7 9 2 1
BITMAP
78
44
04
7C
84
8C
76
00
FE
ENDCHAR
STARTCHAR 00AB
ENCODING 171
SWIDTH 609 0
DWIDTH 11 0
BBX 7 7 2 1
BITMAP
22
66
CC
CC
CC
66
22
ENDCHAR
STARTCHAR 00AC
ENCODING 172
SWIDTH 609 0
DWIDTH 11 0
BBX 9 5 1 3
BITMAP
FF80
0080
0080
0080
0080
ENDCHAR
STARTCHAR 00AD
ENCODING 173
SWIDTH 609 0
DWIDTH 11 0
BBX 8 2 1 3
BITMAP
FF
FF
ENDCHAR
STARTCHAR 00AE
ENCODING 174
SWIDTH 609 0
DWIDTH 11 0
BBX 10 10 0 1
BITMAP
1E00
6180
7E80
9240
9E40
9440
9240
7B80
6180
1E00
ENDCHAR
STARTCHAR 00AF
ENCODING 175
SWIDTH 609 0
DWIDTH 11 0
BBX 6 1 2 10
BITMAP
FC
ENDCHAR
STARTCHAR 00B0
ENCODING 176
SWIDTH 609 0
DWIDTH 11 0
BBX 6 6 3 6
BITMAP
78
CC
84
84
CC
78
ENDCHAR
STARTCHAR 00B1
ENCODING 177
SWIDTH 609 0
DWIDTH 11 0
BBX 7 9 2 1
BITMAP
10
10
10
FE
10
10
10
00
FE
ENDCHAR
STARTCHAR 00B2
ENCODING 178
SWIDTH 609 0
DWIDTH 11 0
BBX 5 7 3 4
BITMAP
70
88
08
10
20
C8
F8
ENDCHAR
STARTCHAR 00B3
ENCODING 179
SWIDTH 609 0
DWIDTH 11 0
BBX 6 7 3 4
BITMAP
78
44
04
18
04
84
F8
ENDCHAR
STARTCHAR 00B4
ENCODING 180
SWIDTH 609 0
DWIDTH 11 0
BBX 5 3 4 9
BITMAP
18
30
C0
ENDCHAR
STARTCHAR 00B5
ENCODING 181
SWIDTH 609 0
DWIDTH 11 0
BBX 9 12 1 -4
BITMAP
7080
2180
2180
2100
6100
4300
6700
7B80
4000
C000
8000
8000
ENDCHAR
STARTCHAR 00B6
ENCODING 182
SWIDTH 609 0
DWIDTH 11 0
BBX 9 12 1 -1
BITMAP
3F80
7A00
FA00
FA00
FA00
7A00
3A00
0A00
0A00
0A00
0A00
7B80
ENDCHAR
STARTCHAR 00B7
ENCODING 183
SWIDTH 609 0
DWIDTH 11 0
BBX 3 3 4 4
BITMAP
E0
E0
E0
ENDCHAR
STARTCHAR 00B8
ENCODING 184
SWIDTH 609 0
DWIDTH 11 0
BBX 5 4 3 -4
BITMAP
20
38
08
F8
ENDCHAR
STARTCHAR 00B9
ENCODING 185
SWIDTH 609 0
DWIDTH 11 0
BBX 5 7 3 4
BITMAP
E0
20
20
20
20
20
F8
ENDCHAR
STARTCHAR 00BA
ENCODING 186
SWIDTH 609 0
DWIDTH 11 0
BBX 8 9 2 1
BITMAP
38
44
82
82
82
44
38
00
7F
ENDCHAR
STARTCHAR 00BB
ENCODING 187
SWIDTH 609 0
DWIDTH 11 0
BBX 7 7 2 1
BITMAP
88
CC
66
66
66
CC
88
ENDCHAR
STARTCHAR 00BC
ENCODING 188
SWIDTH 609 0
DWIDTH 11 0
BBX 8 13 1 -2
BITMAP
E0
20
20
20
21
FE
18
62
C6
0A
1A
1F
02
ENDCHAR
STARTCHAR 00BD
ENCODING 189
SWIDTH 609 0
DWIDTH 11 0
BBX 8 13 1 -2
BITMAP
E0
20
20
20
21
FE
18
6E
89
01
02
04
0F
ENDCHAR
STARTCHAR 00BE
ENCODING 190
SWIDTH 609 0
DWIDTH 11 0
BBX 8 13 1 -2
BITMAP
70
88
30
08
09
F6
18
62
86
0A
0A
1F
02
ENDCHAR
STARTCHAR 00BF
ENCODING 191
SWIDTH 609 0
DWIDTH 11 0
BBX 7 10 2 0
BITMAP
38
38
38
00
10
30
C0
80
C2
7E
ENDCHAR
STARTCHAR 00C0
ENCODING 192
SWIDTH 609 0
DWIDTH 11 0
BBX 11 14 0 0
BITMAP
3000
1800
0600
0000
3E00
0A00
0A00
1100
1100
3F80
2080
2080
60C0
F1E0
ENDCHAR
STARTCHAR 00C1
ENCODING 193
SWIDTH 609 0
DWIDTH 11 0
BBX 11 14 0 0
BITMAP
0180
0300
0C00
0000
3E00
0A00
0A00
1100
1100
3F80
2080
2080
60C0
F1E0
ENDCHAR
STARTCHAR 00C2
ENCODING 194
SWIDTH 609 0
DWIDTH 11 0
BBX 11 14 0 0
BITMAP
0C00
1E00
2100
0000
3E00
0A00
0A00
1100
1100
3F80
2080
2080
60C0
F1E0
ENDCHAR
STARTCHAR 00C3
ENCODING 195
SWIDTH 609 0
DWIDTH 11 0
BBX 11 14 0 0
BITMAP
1D00
2E00
0000
0000
3E00
0A00
0A00
1100
1100
3F80
2080
2080
60C0
F1E0
ENDCHAR
STARTCHAR 00C4
ENCODING 196
SWIDTH 609 0
DWIDTH 11 0
BBX 11 13 0 0
BITMAP
3300
3300
0000
3E00
0A00
0A00
1100
1100
3F80
2080
2080
60C0
F1E0
ENDCHAR
STARTCHAR 00C5
ENCODING 197
SWIDTH 609 0
DWIDTH 11 0
BBX 11 15 0 0
BITMAP
0C00
1200
1200
0C00
0000
3C00
0E00
0A00
1300
1100
3F00
2080
2080
60C0
F3E0
ENDCHAR
STARTCHAR 00C6
ENCODING 198
SWIDTH 609 0
DWIDTH 11 0
BBX 10 10 0 0
BITMAP
3FC0
0C40
1440
1400
1700
2600
3C00
2440
6440
EFC0
ENDCHAR
STARTCHAR 00C7
ENCODING 199
SWIDTH 609 0
DWIDTH 11 0
BBX 9 14 1 -4
BITMAP
1F80
6180
4080
8080
8000
8000
8000
4000
6180
1F00
0800
0E00
0200
3E00
ENDCHAR
STARTCHAR 00C8
ENCODING 200
SWIDTH 609 0
DWIDTH 11 0
BBX 8 14 1 0
BITMAP
60
30
0C
00
FF
41
41
48
78
48
41
41
41
FF
ENDCHAR
STARTCHAR 00C9
ENCODING 201
SWIDTH 609 0
DWIDTH 11 0
BBX 8 14 1 0
BITMAP
03
06
18
00
FF
41
41
48
78
48
41
41
41
FF
ENDCHAR
STARTCHAR 00CA
ENCODING 202
SWIDTH 609 0
DWIDTH 11 0
BBX 8 14 1 0
BITMAP
18
3C
42
00
FF
41
41
48
78
48
41
41
41
FF
ENDCHAR
STARTCHAR 00CB
ENCODING 203
SWIDTH 609 0
DWIDTH 11 0
BBX 8 13 1 0
BITMAP
66
66
00
FF
41
41
48
78
48
41
41
41
FF
ENDCHAR
STARTCHAR 00CC
ENCODING 204
SWIDTH 609 0
DWIDTH 11 0
BBX 7 14 2 0
BITMAP
C0
60
18
00
FE
10
10
10
10
10
10
10
10
FE
ENDCHAR
STARTCHAR 00CD
ENCODING 205
SWIDTH 609 0
DWIDTH 11 0
BBX 7 14 2 0
BITMAP
06
0C
30
00
FE
10
10
10
10
10
10
10
10
FE
ENDCHAR
STARTCHAR 00CE
ENCODING 206
SWIDTH 609 0
DWIDTH 11 0
BBX 7 14 2 0
BITMAP
30
78
84
00
FE
10
10
10
10
10
10
10
10
FE
ENDCHAR
STARTCHAR 00CF
ENCODING 207
SWIDTH 609 0
DWIDTH 11 0
BBX 7 13 2 0
BITMAP
CC
CC
00
FE
10
10
10
10
10
10
10
10
FE
ENDCHAR
STARTCHAR 00D0
ENCODING 208
SWIDTH 609 0
DWIDTH 11 0
BBX 10 10 0 0
BITMAP
7F00
2180
2080
2040
FC40
2040
2040
2080
2180
7E00
ENDCHAR
STARTCHAR 00D1
ENCODING 209
SWIDTH 609 0
DWIDTH 11 0
BBX 9 14 1 0
BITMAP
3A00
5C00
0000
0000
E780
6100
7100
5100
4900
4D00
4500
4700
4300
F100
ENDCHAR
STARTCHAR 00D2
ENCODING 210
SWIDTH 609 0
DWIDTH 11 0
BBX 10 14 1 0
BITMAP
6000
3000
0C00
0000
1E00
6180
4080
8040
8040
8040
8040
4080
6180
1E00
ENDCHAR
STARTCHAR 00D3
ENCODING 211
SWIDTH 609 0
DWIDTH 11 0
BBX 10 14 1 0
BITMAP
0300
0600
1800
0000
1E00
6180
4080
8040
8040
8040
8040
4080
6180
1E00
ENDCHAR
STARTCHAR 00D4
ENCODING 212
SWIDTH 609 0
DWIDTH 11 0
BBX 10 14 1 0
BITMAP
1800
3C00
4200
0000
1E00
6180
4080
8040
8040
8040
8040
4080
6180
1E00
ENDCHAR
STARTCHAR 00D5
ENCODING 213
SWIDTH 609 0
DWIDTH 11 0
BBX 10 14 1 0
BITMAP
3A00
5C00
0000
0000
1E00
6180
4080
8040
8040
8040
8040
4080
6180
1E00
ENDCHAR
STARTCHAR 00D6
ENCODING 214
SWIDTH 609 0
DWIDTH 11 0
BBX 10 13 1 0
BITMAP
6600
6600
0000
1E00
6180
4080
8040
8040
8040
8040
4080
6180
1E00
ENDCHAR
STARTCHAR 00D7
ENCODING 215
SWIDTH 609 0
DWIDTH 11 0
BBX 7 7 2 2
BITMAP
82
44
28
10
28
44
82
ENDCHAR
STARTCHAR 00D8
ENCODING 216
SWIDTH 609 0
DWIDTH 11 0
BBX 10 12 1 -1
BITMAP
0080
1F80
6180
43C0
8640
8440
8840
9840
F080
6180
7E00
8000
ENDCHAR
STARTCHAR 00D9
ENCODING 217
SWIDTH 609 0
DWIDTH 11 0
BBX 10 14 1 0
BITMAP
6000
3000
0C00
0000
E1C0
4080
4080
4080
4080
4080
4080
4080
2100
1E00
ENDCHAR
STARTCHAR 00DA
ENCODING 218
SWIDTH 609 0
DWIDTH 11 0
BBX 10 14 1 0
BITMAP
0300
0600
1800
0000
E1C0
4080
4080
4080
4080
4080
4080
4080
2100
1E00
ENDCHAR
STARTCHAR 00DB
ENCODING 219
SWIDTH 609 0
DWIDTH 11 0
BBX 10 14 1 0
BITMAP
1800
3C00
4200
0000
E1C0
4080
4080
4080
4080
4080
4080
4080
2100
1E00
ENDCHAR
STARTCHAR 00DC
ENCODING 220
SWIDTH 609 0
DWIDTH 11 0
BBX 10 13 1 0
BITMAP
6600
6600
0000
E1C0
4080
4080
4080
4080
4080
4080
4080
2100
1E00
ENDCHAR
STARTCHAR 00DD
ENCODING 221
SWIDTH 609 0
DWIDTH 11 0
BBX 9 14 1 0
BITMAP
0300
0600
1800
0000
F780
2300
3200
1400
1400
0800
0800
0800
0800
3E00
ENDCHAR
STARTCHAR 00DE
ENCODING 222
SWIDTH 609 0
DWIDTH 11 0
BBX 9 10 1 0
BITMAP
FC00
2000
3E00
2180
2080
2080
2180
3E00
2000
FC00
ENDCHAR
STARTCHAR 00DF
ENCODING 223
SWIDTH 609 0
DWIDTH 11 0
BBX 10 11 0 0
BITMAP
1F00
3180
2080
2080
2180
2700
20C0
2040
2040
20C0
E780
ENDCHAR
STARTCHAR 00E0
ENCODING 224
SWIDTH 609 0
DWIDTH 11 0
BBX 9 12 1 0
BITMAP
6000
3000
0C00
0000
7E00
6300
0100
3F00
C100
8100
8300
7D80
ENDCHAR
STARTCHAR 00E1
ENCODING 225
SWIDTH 609 0
DWIDTH 11 0
BBX 9 12 1 0
BITMAP
0300
0600
1800
0000
7E00
6300
0100
3F00
C100
8100
8300
7D80
ENDCHAR
STARTCHAR 00E2
ENCODING 226
SWIDTH 609 0
DWIDTH 11 0
BBX 9 12 1 0
BITMAP
1800
3C00
4200
0000
7E00
6300
0100
3F00
C100
8100
8300
7D80
ENDCHAR
STARTCHAR 00E3
ENCODING 227
SWIDTH 609 0
DWIDTH 11 0
BBX 9 12 1 0
BITMAP
3A00
5C00
0000
0000
7E00
6300
0100
3F00
C100
8100
8300
7D80
ENDCHAR
STARTCHAR 00E4
ENCODING 228
SWIDTH 609 0
DWIDTH 11 0
BBX 9 11 1 0
BITMAP
6600
6600
0000
7E00
6300
0100
3F00
C100
8100
8300
7D80
ENDCHAR
STARTCHAR 00E5
ENCODING 229
SWIDTH 609 0
DWIDTH 11 0
BBX 9 13 1 0
BITMAP
0C00
1200
1200
0C00
0000
7E00
6300
0100
3F00
C100
8100
8300
7D80
ENDCHAR
STARTCHAR 00E6
ENCODING 230
SWIDTH 609 0
DWIDTH 11 0
BBX 10 8 0 0
BITMAP
7780
4C80
0840
0840
7FC0
8800
88C0
7780
ENDCHAR
STARTCHAR 00E7
ENCODING 231
SWIDTH 609 0
DWIDTH 11 0
BBX 9 12 1 -4
BITMAP
3F80
6180
8180
8080
8000
8000
4180
3E00
0800
0E00
0200
3E00
ENDCHAR
STARTCHAR 00E8
ENCODING 232
SWIDTH 609 0
DWIDTH 11 0
BBX 9 12 1 0
BITMAP
6000
3000
0C00
0000
3E00
6100
C180
8080
FF80
8000
4180
3F00
ENDCHAR
STARTCHAR 00E9
ENCODING 233
SWIDTH 609 0
DWIDTH 11 0
BBX 9 12 1 0
BITMAP
0300
0600
1800
0000
3E00
6100
C180
8080
FF80
8000
4180
3F00
ENDCHAR
STARTCHAR 00EA
ENCODING 234
SWIDTH 609 0
DWIDTH 11 0
BBX 9 12 1 0
BITMAP
1800
3C00
4200
0000
3E00
6100
C180
8080
FF80
8000
4180
3F00
ENDCHAR
STARTCHAR 00EB
ENCODING 235
SWIDTH 609 0
DWIDTH 11 0
BBX 9 11 1 0
BITMAP
6600
6600
0000
3E00
6100
C180
8080
FF80
8000
4180
3F00
ENDCHAR
STARTCHAR 00EC
ENCODING 236
SWIDTH 609 0
DWIDTH 11 0
BBX 8 12 2 0
BITMAP
C0
60
18
00
70
10
10
10
10
10
10
FF
ENDCHAR
STARTCHAR 00ED
ENCODING 237
SWIDTH 609 0
DWIDTH 11 0
BBX 8 12 2 0
BITMAP
06
0C
30
00
70
10
10
10
10
10
10
FF
ENDCHAR
STARTCHAR 00EE
ENCODING 238
SWIDTH 609 0
DWIDTH 11 0
BBX 8 12 2 0
BITMAP
30
78
84
00
70
10
10
10
10
10
10
FF
ENDCHAR
STARTCHAR 00EF
ENCODING 239
SWIDTH 609 0
DWIDTH 11 0
BBX 8 11 2 0
BITMAP
CC
CC
00
70
10
10
10
10
10
10
FF
ENDCHAR
STARTCHAR 00F0
ENCODING 240
SWIDTH 609 0
DWIDTH 11 0
BBX 9 11 1 0
BITMAP
3200
1C00
6600
3F00
4100
8080
8080
8080
8080
4100
3E00
ENDCHAR
STARTCHAR 00F1
ENCODING 241
SWIDTH 609 0
DWIDTH 11 0
BBX 9 12 1 0
BITMAP
3A00
5C00
0000
0000
DE00
6300
4100
4100
4100
4100
4100
E380
ENDCHAR
STARTCHAR 00F2
ENCODING 242
SWIDTH 609 0
DWIDTH 11 0
BBX 9 12 1 0
BITMAP
6000
3000
0C00
0000
3E00
4100
8080
8080
8080
8080
4100
3E00
ENDCHAR
STARTCHAR 00F3
ENCODING 243
SWIDTH 609 0
DWIDTH 11 0
BBX 9 12 1 0
BITMAP
0300
0600
1800
0000
3E00
4100
8080
8080
8080
8080
4100
3E00
ENDCHAR
STARTCHAR 00F4
ENCODING 244
SWIDTH 609 0
DWIDTH 11 0
BBX 9 12 1 0
BITMAP
1800
3C00
4200
0000
3E00
4100
8080
8080
8080
8080
4100
3E00
ENDCHAR
STARTCHAR 00F5
ENCODING 245
SWIDTH 609 0
DWIDTH 11 0
BBX 9 12 1 0
BITMAP
3A00
5C00
0000
0000
3E00
4100
8080
8080
8080
8080
4100
3E00
ENDCHAR
STARTCHAR 00F6
ENCODING 246
SWIDTH 609 0
DWIDTH 11 0
BBX 9 11 1 0
BITMAP
6600
6600
0000
3E00
4100
8080
8080
8080
8080
4100
3E00
ENDCHAR
STARTCHAR 00F7
ENCODING 247
SWIDTH 609 0
DWIDTH 11 0
BBX 10 7 0 2
BITMAP
0C00
0C00
0000
FFC0
0000
0C00
0C00
ENDCHAR
STARTCHAR 00F8
ENCODING 248
SWIDTH 609 0
DWIDTH 11 0
BBX 9 8 1 0
BITMAP
3E80
4300
8780
8C80
9880
A080
6100
BE00
ENDCHAR
STARTCHAR 00F9
ENCODING 249
SWIDTH 609 0
DWIDTH 11 0
BBX 9 12 1 0
BITMAP
C000
6000
1800
0000
C700
4100
4100
4100
4100
4100
6300
3D80
ENDCHAR
STARTCHAR 00FA
ENCODING 250
SWIDTH 609 0
DWIDTH 11 0
BBX 9 12 1 0
BITMAP
0600
0C00
3000
0000
C700
4100
4100
4100
4100
4100
6300
3D80
ENDCHAR
STARTCHAR 00FB
ENCODING 251
SWIDTH 609 0
DWIDTH 11 0
BBX 9 12 1 0
BITMAP
3000
7800
8400
0000
C700
4100
4100
4100
4100
4100
6300
3D80
ENDCHAR
STARTCHAR 00FC
ENCODING 252
SWIDTH 609 0
DWIDTH 11 0
BBX 9 11 1 0
BITMAP
CC00
CC00
0000
C700
4100
4100
4100
4100
4100
6300
3D80
ENDCHAR
STARTCHAR 00FD
ENCODING 253
SWIDTH 609 0
DWIDTH 11 0
BBX 10 16 1 -4
BITMAP
0300
0600
1800
0000
F3C0
6180
2100
3300
1200
1E00
0C00
0C00
0C00
0800
1800
FC00
ENDCHAR
STARTCHAR 00FE
ENCODING 254
SWIDTH 609 0
DWIDTH 11 0
BBX 9 15 1 -4
BITMAP
C000
4000
4000
5E00
6100
4080
4080
4080
4080
6100
5E00
4000
4000
4000
F800
ENDCHAR
STARTCHAR 00FF
ENCODING 255
SWIDTH 609 0
DWIDTH 11 0
BBX 10 15 1 -4
BITMAP
6600
6600
0000
F3C0
6180
2100
3300
1200
1E00
0C00
0C00
0C00
0800
1800
FC00
ENDCHAR
ENDFONT
